<svg version="1.1" id="Layer_1" xmlns="http://www.w3.org/2000/svg" xmlns:xlink="http://www.w3.org/1999/xlink" x="0px" y="0px"
	 width="100%" viewBox="0 0 226 238" enable-background="new 0 0 226 238" xml:space="preserve">
<path fill="#020200" opacity="1.000000" stroke="none" 
	d="
M1.000000,91.000000 
	C1.000000,60.666672 1.000000,30.833344 1.000000,1.000012 
	C76.333313,1.000008 151.666626,1.000008 226.999954,1.000004 
	C226.999969,80.333305 226.999969,159.666611 226.999985,238.999939 
	C151.666718,238.999954 76.333427,238.999954 1.000070,238.999969 
	C1.000000,189.833328 1.000000,140.666672 1.000000,91.000000 
M83.909668,172.237244 
	C83.200500,171.907379 82.491333,171.577515 81.403313,171.102585 
	C81.403313,171.102585 81.015305,170.984177 80.688293,170.396729 
	C79.813515,169.908340 78.938744,169.419952 77.479866,168.605301 
	C72.235535,163.080078 66.991211,157.554840 61.557426,151.654144 
	C61.423641,151.401093 61.239109,151.193069 61.016064,151.008011 
	C61.016064,151.008011 60.993713,150.995392 61.041325,150.247742 
	C59.264080,146.249084 57.486835,142.250412 55.760777,137.424088 
	C55.407295,135.686493 55.053814,133.948883 54.552505,131.822723 
	C54.552505,131.822723 54.498688,131.410461 54.738174,130.741989 
	C54.289886,129.763229 53.841599,128.784470 53.312714,126.900848 
	C53.345852,121.999710 53.378986,117.098572 54.055927,111.897850 
	C54.216290,110.796646 54.376652,109.695450 54.585484,108.191093 
	C54.585484,108.191093 54.726788,107.810425 55.306065,107.363007 
	C55.774715,105.139969 56.243366,102.916939 56.817368,99.941200 
	C57.868614,96.631821 58.919861,93.322449 60.018162,90.008713 
	C60.018162,90.008713 60.006531,89.962921 60.334328,89.531082 
	C63.875683,85.113075 66.818718,79.981506 71.073280,76.414078 
	C82.718010,66.650070 95.857162,59.766144 111.588036,59.693569 
	C117.406723,59.666725 122.473816,58.148506 127.145226,53.469479 
	C133.450058,46.884045 134.101440,39.385612 130.704742,30.592516 
	C130.009918,29.812634 129.315079,29.032753 128.241898,28.000486 
	C127.983971,27.838482 127.745766,27.651373 127.491127,26.926821 
	C127.238037,26.713909 126.984955,26.500998 126.828003,26.214943 
	C126.828003,26.214943 126.709801,26.239861 126.786964,25.530880 
	C124.187920,24.320175 121.588882,23.109472 118.374695,21.854589 
	C117.969681,21.785782 117.564667,21.716972 116.738701,21.022039 
	C112.115898,21.271015 107.493088,21.519991 102.171532,21.902773 
	C101.462395,21.941025 100.753258,21.979279 99.477600,21.542332 
	C96.117256,22.038301 92.564873,22.005104 89.436523,23.140373 
	C82.918068,25.505903 76.623901,28.489483 70.213852,31.218271 
	C70.213852,31.218271 70.201958,31.237474 69.558121,31.159035 
	C69.013390,31.731606 68.468658,32.304176 67.535225,33.039501 
	C67.535225,33.039501 67.114357,33.060566 66.421539,32.915161 
	C65.600677,33.574055 64.779808,34.232944 63.380093,35.144897 
	C62.593895,35.799541 61.807701,36.454185 60.360119,37.073490 
	C49.259037,43.885204 40.341515,53.062431 32.864071,63.544941 
	C27.130701,71.582451 22.087799,80.128250 19.984278,90.689713 
	C19.651751,91.458282 19.319223,92.226852 18.565809,93.599686 
	C17.517918,99.476326 16.470028,105.352966 15.363688,112.001694 
	C15.346000,113.293716 15.328311,114.585739 14.935363,116.729004 
	C15.018766,119.184753 15.102170,121.640495 15.135268,124.864204 
	C15.286285,125.603844 15.437303,126.343483 15.395133,127.691628 
	C15.511317,128.091064 15.627501,128.490494 15.415183,129.478943 
	C15.436218,129.925781 15.457254,130.372604 15.257474,131.626678 
	C15.832212,134.093414 16.406950,136.560135 16.941793,139.594238 
	C20.224966,148.644135 22.644262,158.144501 27.056406,166.605698 
	C30.788603,173.762924 36.828419,179.716812 41.895931,186.111282 
	C41.895931,186.111282 41.796726,186.143143 41.791183,186.876480 
	C47.851635,191.946396 53.912086,197.016296 60.120476,202.769119 
	C64.131325,204.830460 68.142166,206.891815 72.702820,209.339966 
	C79.408775,211.906113 85.919815,215.697800 92.858383,216.801331 
	C111.331841,219.739380 129.992920,219.752060 147.637695,212.564316 
	C155.999588,209.158051 163.546051,203.750015 172.083908,199.027725 
	C174.733887,196.858627 177.446487,194.761124 180.022751,192.507751 
	C189.940536,183.832947 196.937851,172.872696 202.768478,161.331848 
	C206.108932,154.719940 207.538162,147.142471 210.055634,139.200653 
	C210.670853,131.472794 211.286072,123.744926 212.062912,115.104881 
	C211.399490,110.076866 210.993851,104.998398 210.021545,100.030838 
	C207.647125,87.899910 203.386276,76.509880 195.771622,66.252731 
	C195.771622,66.252731 195.499771,66.146233 195.206375,65.568123 
	C194.440903,64.380249 193.675415,63.192375 192.884384,61.316048 
	C177.608444,41.749111 158.424240,28.554579 133.686920,23.603771 
	C135.390442,28.652914 137.236374,32.570625 137.988678,36.688152 
	C139.410370,44.469360 137.105103,51.375614 131.870346,57.393616 
	C131.135254,58.238693 127.998856,60.359478 132.513733,62.012009 
	C142.495682,65.872063 151.211502,71.707214 159.039307,79.674149 
	C160.280960,81.162262 161.522614,82.650383 162.954147,84.847740 
	C169.483521,94.245667 173.308380,104.602562 173.927002,116.069252 
	C174.641159,129.306915 172.062775,141.664719 164.121017,152.602753 
	C163.728699,153.143066 164.038055,154.192856 163.895767,155.474747 
	C163.895767,155.474747 163.931915,155.959091 163.280045,156.203949 
	C161.858978,157.475296 160.245636,158.588562 159.048752,160.044235 
	C152.444473,168.076401 144.020416,173.230774 133.496628,176.030197 
	C132.557663,176.832687 131.618683,177.635162 130.205261,178.478439 
	C129.887543,178.482544 129.570694,178.501312 128.890503,178.125305 
	C126.143585,178.838470 123.396660,179.551651 119.766212,180.301544 
	C115.292458,180.292191 110.818710,180.282837 105.887215,179.768173 
	C98.908012,177.524216 91.928810,175.280258 84.552338,172.921295 
	C84.552338,172.921295 84.151138,172.820862 83.909668,172.237244 
z"/>
<path fill="#BAFB52" opacity="1.000000" stroke="none" 
	d="
M15.310621,115.877762 
	C15.328311,114.585739 15.346000,113.293716 15.698177,111.424347 
	C17.017342,104.896477 18.002018,98.945946 18.986696,92.995415 
	C19.319223,92.226852 19.651751,91.458282 20.405565,90.302643 
	C21.566681,89.118202 22.530275,88.435951 23.009434,87.504501 
	C25.782700,82.113388 28.121439,76.471237 31.232130,71.289154 
	C34.173557,66.389053 37.430355,61.515690 41.362431,57.410160 
	C47.570881,50.927841 54.459846,45.097290 61.413376,38.973049 
	C63.521828,37.651585 65.277679,36.347950 67.428360,35.034706 
	C73.248192,32.845989 78.685081,30.695179 84.075157,28.432848 
	C84.496292,28.256090 84.590317,27.299978 84.861740,26.746378 
	C84.887123,26.786671 84.802139,26.829647 85.282578,26.881594 
	C89.422859,26.946199 93.119820,27.270823 96.727119,26.841692 
	C98.568253,26.622665 100.248520,25.051361 102.467773,24.067669 
	C109.450233,24.178520 116.133354,22.570482 122.153183,26.870481 
	C125.786766,29.465975 131.352463,38.584274 130.168365,41.823097 
	C128.661072,45.945930 126.611374,49.870457 124.420235,53.931141 
	C117.792671,55.352341 111.568069,56.873814 105.276154,58.028507 
	C102.217163,58.589897 98.546387,57.515137 95.991371,58.821556 
	C86.606270,63.620281 75.790184,66.404442 69.535576,76.065964 
	C69.215897,76.559769 68.406052,76.710800 67.890282,77.107124 
	C63.625702,80.384064 60.666397,84.471039 60.006531,89.962921 
	C60.006531,89.962921 60.018162,90.008713 59.638828,90.049728 
	C53.270313,95.138054 52.298447,102.539383 51.269508,109.418327 
	C50.249275,116.239075 50.282726,123.440811 51.259167,130.274689 
	C52.256462,137.254517 53.425011,144.608124 59.049820,150.359131 
	C61.529564,159.429474 68.953438,164.214371 74.717072,170.232620 
	C76.507492,172.102142 79.526733,172.794815 82.293289,174.151733 
	C83.462967,174.468872 84.322754,174.660538 85.186440,174.862427 
	C85.190338,174.872635 85.198326,174.831467 85.231766,175.196396 
	C88.747719,180.348480 94.336868,181.075226 99.361183,181.754166 
	C106.001572,182.651505 112.840485,181.986588 119.586807,182.211227 
	C137.365463,182.803223 150.225128,173.786911 161.160538,161.044006 
	C162.389984,159.611328 163.022552,157.666458 163.931915,155.959091 
	C163.931915,155.959091 163.895767,155.474747 164.288391,155.146881 
	C167.430283,149.852737 170.465195,145.020432 172.870148,139.892654 
	C178.087616,128.768097 177.691025,116.958099 174.671799,105.586845 
	C172.678299,98.078720 168.300735,91.203598 164.922073,83.683990 
	C162.813889,79.995872 162.869949,74.700905 156.821548,74.684814 
	C151.498032,68.752419 145.687744,63.874382 138.401199,61.431576 
	C135.213791,60.363003 134.674835,58.751297 135.259064,55.815998 
	C135.970490,55.031712 136.478561,54.453041 137.193390,53.646084 
	C137.577637,52.623287 137.755112,51.828781 138.165497,50.756783 
	C143.588593,42.989689 142.383255,35.415157 138.008987,27.569942 
	C152.604919,32.643425 166.324371,37.873478 177.285919,48.222073 
	C181.995529,52.668331 186.446564,57.388504 191.044678,62.348606 
	C192.549438,63.857395 194.024612,65.001816 195.499771,66.146233 
	C195.499771,66.146233 195.771622,66.252731 195.633316,66.797211 
	C196.009872,69.437958 196.256821,71.650330 197.103027,73.603012 
	C198.340607,76.458839 200.406158,78.990959 201.412048,81.905006 
	C203.740799,88.651489 205.844818,95.492226 207.650253,102.396645 
	C208.807953,106.824043 209.271988,111.432838 210.031586,116.431084 
	C209.342239,124.604507 208.668304,132.307159 207.884186,140.354889 
	C205.733810,146.566299 204.413071,152.824036 201.484619,158.207184 
	C197.102005,166.263474 192.110886,174.120697 186.402039,181.284393 
	C181.264343,187.731369 174.812195,193.130829 168.614807,199.102203 
	C163.522980,201.720581 158.927078,204.661423 153.946945,206.630310 
	C147.426834,209.208023 140.614868,211.055588 133.902771,213.134354 
	C132.005127,213.722076 130.034607,214.278442 128.068695,214.406387 
	C119.875061,214.939636 111.543999,216.389954 103.502068,215.453644 
	C93.602684,214.301025 83.940941,211.107391 74.014603,208.496155 
	C69.263725,205.791595 64.674744,203.386795 59.844955,200.743286 
	C53.668339,195.717453 47.732533,190.930298 41.796722,186.143143 
	C41.796726,186.143143 41.895931,186.111282 41.913399,185.777771 
	C41.597538,184.359512 41.500130,183.114975 40.891659,182.216599 
	C37.552864,177.287033 33.508274,172.742126 30.800514,167.499832 
	C26.468019,159.112000 21.012070,151.224411 20.548840,141.015762 
	C20.371666,137.111176 20.665356,131.564835 15.743686,128.889923 
	C15.627501,128.490494 15.511317,128.091064 15.744146,127.278000 
	C16.076290,125.909309 16.059422,124.954262 15.994972,123.577988 
	C15.735135,120.730431 15.522879,118.304100 15.310621,115.877762 
z"/>
<path fill="#A4D05C" opacity="1.000000" stroke="none" 
	d="
M191.015076,61.984238 
	C186.446564,57.388504 181.995529,52.668331 177.285919,48.222073 
	C166.324371,37.873478 152.604919,32.643425 138.008987,27.569942 
	C142.383255,35.415157 143.588593,42.989689 137.971024,50.993958 
	C137.357971,52.297203 137.172287,53.085785 136.986603,53.874371 
	C136.478561,54.453041 135.970490,55.031712 134.784439,55.904079 
	C133.790863,56.259369 133.475281,56.320957 133.178619,56.339577 
	C133.197540,56.296608 133.352005,56.195736 133.259720,56.576538 
	C132.805878,58.453903 132.444336,59.950466 132.082794,61.447029 
	C127.998856,60.359478 131.135254,58.238693 131.870346,57.393616 
	C137.105103,51.375614 139.410370,44.469360 137.988678,36.688152 
	C137.236374,32.570625 135.390442,28.652914 133.686920,23.603771 
	C158.424240,28.554579 177.608444,41.749111 192.581253,61.660751 
	C191.857101,61.998383 191.436096,61.991310 191.015076,61.984238 
z"/>
<path fill="#A9DA5D" opacity="1.000000" stroke="none" 
	d="
M74.176498,208.795883 
	C83.940941,211.107391 93.602684,214.301025 103.502068,215.453644 
	C111.543999,216.389954 119.875061,214.939636 128.068695,214.406387 
	C130.034607,214.278442 132.005127,213.722076 133.902771,213.134354 
	C140.614868,211.055588 147.426834,209.208023 153.946945,206.630310 
	C158.927078,204.661423 163.522980,201.720581 169.038544,199.120560 
	C170.345505,199.102310 170.903717,199.175583 171.461945,199.248871 
	C163.546051,203.750015 155.999588,209.158051 147.637695,212.564316 
	C129.992920,219.752060 111.331841,219.739380 92.858383,216.801331 
	C85.919815,215.697800 79.408775,211.906113 72.765602,209.133148 
	C73.277756,208.882858 73.727127,208.839371 74.176498,208.795883 
z"/>
<path fill="#A0CC59" opacity="1.000000" stroke="none" 
	d="
M60.170429,89.747002 
	C60.666397,84.471039 63.625702,80.384064 67.890282,77.107124 
	C68.406052,76.710800 69.215897,76.559769 69.535576,76.065964 
	C75.790184,66.404442 86.606270,63.620281 95.991371,58.821556 
	C98.546387,57.515137 102.217163,58.589897 105.276154,58.028507 
	C111.568069,56.873814 117.792671,55.352341 124.721062,53.947346 
	C125.796547,53.918739 126.195938,53.924599 126.595337,53.930458 
	C122.473816,58.148506 117.406723,59.666725 111.588036,59.693569 
	C95.857162,59.766144 82.718010,66.650070 71.073280,76.414078 
	C66.818718,79.981506 63.875683,85.113075 60.170429,89.747002 
z"/>
<path fill="#ABDA5F" opacity="1.000000" stroke="none" 
	d="
M163.605988,156.081512 
	C163.022552,157.666458 162.389984,159.611328 161.160538,161.044006 
	C150.225128,173.786911 137.365463,182.803223 119.586807,182.211227 
	C112.840485,181.986588 106.001572,182.651505 99.361183,181.754166 
	C94.336868,181.075226 88.747719,180.348480 85.604630,175.204147 
	C92.744347,176.655807 99.544655,178.464661 106.344955,180.273499 
	C110.818710,180.282837 115.292458,180.292191 120.601486,180.426422 
	C124.042747,179.879105 126.648735,179.206924 129.254715,178.534729 
	C129.570694,178.501312 129.887543,178.482544 130.775833,178.555771 
	C132.276550,177.808975 133.206696,176.984863 134.136841,176.160736 
	C144.020416,173.230774 152.444473,168.076401 159.048752,160.044235 
	C160.245636,158.588562 161.858978,157.475296 163.605988,156.081512 
z"/>
<path fill="#BBED66" opacity="1.000000" stroke="none" 
	d="
M171.772919,199.138290 
	C170.903717,199.175583 170.345505,199.102310 169.363556,199.010681 
	C174.812195,193.130829 181.264343,187.731369 186.402039,181.284393 
	C192.110886,174.120697 197.102005,166.263474 201.484619,158.207184 
	C204.413071,152.824036 205.733810,146.566299 208.189850,140.354172 
	C209.013077,140.005508 209.420456,140.002594 209.827850,139.999695 
	C207.538162,147.142471 206.108932,154.719940 202.768478,161.331848 
	C196.937851,172.872696 189.940536,183.832947 180.022751,192.507751 
	C177.446487,194.761124 174.733887,196.858627 171.772919,199.138290 
z"/>
<path fill="#9BC854" opacity="1.000000" stroke="none" 
	d="
M164.990601,84.045052 
	C168.300735,91.203598 172.678299,98.078720 174.671799,105.586845 
	C177.691025,116.958099 178.087616,128.768097 172.870148,139.892654 
	C170.465195,145.020432 167.430283,149.852737 164.350861,154.912216 
	C164.038055,154.192856 163.728699,153.143066 164.121017,152.602753 
	C172.062775,141.664719 174.641159,129.306915 173.927002,116.069252 
	C173.308380,104.602562 169.483521,94.245667 163.228622,84.450317 
	C163.998932,84.050278 164.494766,84.047668 164.990601,84.045052 
z"/>
<path fill="#A2CA5B" opacity="1.000000" stroke="none" 
	d="
M61.060783,38.990875 
	C54.459846,45.097290 47.570881,50.927841 41.362431,57.410160 
	C37.430355,61.515690 34.173557,66.389053 31.232130,71.289154 
	C28.121439,76.471237 25.782700,82.113388 23.009434,87.504501 
	C22.530275,88.435951 21.566681,89.118202 20.480001,89.989609 
	C22.087799,80.128250 27.130701,71.582451 32.864071,63.544941 
	C40.341515,53.062431 49.259037,43.885204 60.713051,37.404419 
	C61.064247,38.153854 61.062515,38.572365 61.060783,38.990875 
z"/>
<path fill="#A7D25C" opacity="1.000000" stroke="none" 
	d="
M15.579433,129.184433 
	C20.665356,131.564835 20.371666,137.111176 20.548840,141.015762 
	C21.012070,151.224411 26.468019,159.112000 30.800514,167.499832 
	C33.508274,172.742126 37.552864,177.287033 40.891659,182.216599 
	C41.500130,183.114975 41.597538,184.359512 41.888916,185.823761 
	C36.828419,179.716812 30.788603,173.762924 27.056406,166.605698 
	C22.644262,158.144501 20.224966,148.644135 17.062654,138.896057 
	C16.615107,135.738388 16.046698,133.278915 15.478289,130.819443 
	C15.457254,130.372604 15.436218,129.925781 15.579433,129.184433 
z"/>
<path fill="#ADDD5F" opacity="1.000000" stroke="none" 
	d="
M58.967793,150.009521 
	C53.425011,144.608124 52.256462,137.254517 51.259167,130.274689 
	C50.282726,123.440811 50.249275,116.239075 51.269508,109.418327 
	C52.298447,102.539383 53.270313,95.138054 59.615303,90.051910 
	C58.919861,93.322449 57.868614,96.631821 56.380165,100.409248 
	C55.537567,103.188339 55.132179,105.499382 54.726791,107.810425 
	C54.726788,107.810425 54.585484,108.191093 54.215584,108.493912 
	C53.701168,109.930305 53.556648,111.063866 53.412125,112.197433 
	C53.378986,117.098572 53.345852,121.999710 53.240021,127.696129 
	C53.611115,129.464432 54.054901,130.437439 54.498688,131.410461 
	C54.498688,131.410461 54.552505,131.822723 54.543056,132.404343 
	C54.925602,134.741226 55.317596,136.496490 55.709591,138.251755 
	C57.486835,142.250412 59.264080,146.249084 60.763405,150.500763 
	C59.979591,150.505676 59.473694,150.257599 58.967793,150.009521 
z"/>
<path fill="#A2CF5C" opacity="1.000000" stroke="none" 
	d="
M126.870285,53.699966 
	C126.195938,53.924599 125.796547,53.918739 125.096321,53.896675 
	C126.611374,49.870457 128.661072,45.945930 130.168365,41.823097 
	C131.352463,38.584274 125.786766,29.465975 122.153183,26.870481 
	C116.133354,22.570482 109.450233,24.178520 102.048721,24.015030 
	C100.615036,23.857384 100.066666,23.728762 99.603622,23.333199 
	C99.807343,22.716682 99.925735,22.367107 100.044128,22.017532 
	C100.753258,21.979279 101.462395,21.941025 102.985741,21.943382 
	C108.253181,21.872051 112.706421,21.760107 117.159653,21.648163 
	C117.564667,21.716972 117.969681,21.785782 118.874634,22.164608 
	C121.819656,23.729702 124.264725,24.984781 126.709801,26.239861 
	C126.709801,26.239861 126.828003,26.214943 126.795837,26.508511 
	C127.018211,27.014439 127.272736,27.226799 127.527267,27.439159 
	C127.745766,27.651373 127.983971,27.838482 128.453079,28.468863 
	C129.354645,29.704288 130.045029,30.471340 130.735413,31.238390 
	C134.101440,39.385612 133.450058,46.884045 126.870285,53.699966 
z"/>
<path fill="#ABDB61" opacity="1.000000" stroke="none" 
	d="
M210.046967,115.960320 
	C209.271988,111.432838 208.807953,106.824043 207.650253,102.396645 
	C205.844818,95.492226 203.740799,88.651489 201.412048,81.905006 
	C200.406158,78.990959 198.340607,76.458839 197.103027,73.603012 
	C196.256821,71.650330 196.009872,69.437958 195.674866,66.937157 
	C203.386276,76.509880 207.647125,87.899910 210.021545,100.030838 
	C210.993851,104.998398 211.399490,110.076866 211.672791,115.550285 
	C210.870773,115.983902 210.458878,115.972115 210.046967,115.960320 
z"/>
<path fill="#A7D55C" opacity="1.000000" stroke="none" 
	d="
M132.298264,61.729519 
	C132.444336,59.950466 132.805878,58.453903 133.287003,56.647995 
	C133.406570,56.338650 133.159698,56.382542 133.159698,56.382542 
	C133.475281,56.320957 133.790863,56.259369 134.581085,56.109695 
	C134.674835,58.751297 135.213791,60.363003 138.401199,61.431576 
	C145.687744,63.874382 151.498032,68.752419 157.024078,74.950882 
	C157.940155,76.661713 158.469650,77.825981 158.999161,78.990257 
	C151.211502,71.707214 142.495682,65.872063 132.298264,61.729519 
z"/>
<path fill="#B0DC5F" opacity="1.000000" stroke="none" 
	d="
M59.049820,150.359131 
	C59.473694,150.257599 59.979591,150.505676 60.739601,150.874573 
	C60.993713,150.995392 61.016064,151.008011 61.113304,151.199814 
	C61.364815,151.624893 61.543591,151.837555 61.746883,152.029617 
	C66.991211,157.554840 72.235535,163.080078 77.909248,169.069504 
	C79.230858,170.017197 80.123085,170.500687 81.015305,170.984177 
	C81.015305,170.984177 81.403313,171.102585 81.553467,171.515930 
	C81.784019,172.379364 81.864418,172.829468 81.954834,173.466232 
	C81.964844,173.652893 81.983406,174.026276 81.983406,174.026276 
	C79.526733,172.794815 76.507492,172.102142 74.717072,170.232620 
	C68.953438,164.214371 61.529564,159.429474 59.049820,150.359131 
z"/>
<path fill="#A7D25C" opacity="1.000000" stroke="none" 
	d="
M41.793953,186.509811 
	C47.732533,190.930298 53.668339,195.717453 59.820885,201.019928 
	C60.015926,201.718887 59.994236,201.902542 59.972542,202.086197 
	C53.912086,197.016296 47.851635,191.946396 41.793953,186.509811 
z"/>
<path fill="#375216" opacity="1.000000" stroke="none" 
	d="
M99.760864,21.779932 
	C99.925735,22.367107 99.807343,22.716682 99.191177,23.317936 
	C94.062981,24.656292 89.432564,25.742970 84.802139,26.829647 
	C84.802139,26.829647 84.887123,26.786671 84.480301,26.774881 
	C79.461510,28.248426 74.849541,29.733763 70.237572,31.219101 
	C76.623901,28.489483 82.918068,25.505903 89.436523,23.140373 
	C92.564873,22.005104 96.117256,22.038301 99.760864,21.779932 
z"/>
<path fill="#BBE96C" opacity="1.000000" stroke="none" 
	d="
M210.031586,116.431084 
	C210.458878,115.972115 210.870773,115.983902 211.591980,116.006378 
	C211.286072,123.744926 210.670853,131.472794 209.941742,139.600174 
	C209.420456,140.002594 209.013077,140.005508 208.300018,140.009125 
	C208.668304,132.307159 209.342239,124.604507 210.031586,116.431084 
z"/>
<path fill="#A9DA64" opacity="1.000000" stroke="none" 
	d="
M60.046509,202.427658 
	C59.994236,201.902542 60.015926,201.718887 60.061691,201.258606 
	C64.674744,203.386795 69.263725,205.791595 74.014603,208.496155 
	C73.727127,208.839371 73.277756,208.882858 72.490700,208.939758 
	C68.142166,206.891815 64.131325,204.830460 60.046509,202.427658 
z"/>
<path fill="#6E9038" opacity="1.000000" stroke="none" 
	d="
M18.776253,93.297546 
	C18.002018,98.945946 17.017342,104.896477 15.727402,111.038307 
	C16.470028,105.352966 17.517918,99.476326 18.776253,93.297546 
z"/>
<path fill="#BAEC6A" opacity="1.000000" stroke="none" 
	d="
M70.225708,31.218685 
	C74.849541,29.733763 79.461510,28.248426 84.454926,26.734589 
	C84.590317,27.299978 84.496292,28.256090 84.075157,28.432848 
	C78.685081,30.695179 73.248192,32.845989 67.364319,34.965183 
	C66.905464,34.905266 66.775238,34.768837 66.806442,34.479721 
	C66.929878,33.813923 67.022118,33.437244 67.114357,33.060566 
	C67.114357,33.060566 67.535225,33.039501 68.060509,33.008568 
	C69.124512,32.397583 69.663239,31.817530 70.201958,31.237474 
	C70.201958,31.237474 70.213852,31.218271 70.225708,31.218685 
z"/>
<path fill="#537028" opacity="1.000000" stroke="none" 
	d="
M106.116089,180.020844 
	C99.544655,178.464661 92.744347,176.655807 85.571182,174.839218 
	C85.198326,174.831467 85.190338,174.872635 85.133652,174.561646 
	C85.034508,173.845871 84.992058,173.441071 84.949608,173.036285 
	C91.928810,175.280258 98.908012,177.524216 106.116089,180.020844 
z"/>
<path fill="#B9E660" opacity="1.000000" stroke="none" 
	d="
M159.019226,79.332199 
	C158.469650,77.825981 157.940155,76.661713 157.208130,75.231369 
	C162.869949,74.700905 162.813889,79.995872 164.922073,83.683990 
	C164.494766,84.047668 163.998932,84.050278 163.133667,84.095703 
	C161.522614,82.650383 160.280960,81.162262 159.019226,79.332199 
z"/>
<path fill="#375216" opacity="1.000000" stroke="none" 
	d="
M116.949173,21.335102 
	C112.706421,21.760107 108.253181,21.872051 103.335114,21.876480 
	C107.493088,21.519991 112.115898,21.271015 116.949173,21.335102 
z"/>
<path fill="#375216" opacity="1.000000" stroke="none" 
	d="
M126.748383,25.885370 
	C124.264725,24.984781 121.819656,23.729702 119.182205,22.186697 
	C121.588882,23.109472 124.187920,24.320175 126.748383,25.885370 
z"/>
<path fill="#537028" opacity="1.000000" stroke="none" 
	d="
M129.072601,178.330017 
	C126.648735,179.206924 124.042747,179.879105 121.043259,180.408051 
	C123.396660,179.551651 126.143585,178.838470 129.072601,178.330017 
z"/>
<path fill="#BAEC6A" opacity="1.000000" stroke="none" 
	d="
M61.413380,38.973049 
	C61.062515,38.572365 61.064247,38.153854 61.043739,37.422089 
	C61.807701,36.454185 62.593895,35.799541 64.019035,35.082916 
	C65.363731,34.936901 66.069481,34.852871 66.775238,34.768837 
	C66.775238,34.768837 66.905464,34.905266 66.969498,34.974792 
	C65.277679,36.347950 63.521828,37.651585 61.413380,38.973049 
z"/>
<path fill="#6E9038" opacity="1.000000" stroke="none" 
	d="
M15.367882,131.223053 
	C16.046698,133.278915 16.615107,135.738388 17.082603,138.612366 
	C16.406950,136.560135 15.832212,134.093414 15.367882,131.223053 
z"/>
<path fill="#ABDB61" opacity="1.000000" stroke="none" 
	d="
M191.044678,62.348610 
	C191.436096,61.991310 191.857101,61.998383 192.594025,62.004974 
	C193.675415,63.192375 194.440903,64.380249 195.353073,65.857178 
	C194.024612,65.001816 192.549438,63.857395 191.044678,62.348610 
z"/>
<path fill="#415D1D" opacity="1.000000" stroke="none" 
	d="
M55.016426,107.586716 
	C55.132179,105.499382 55.537567,103.188339 56.327492,100.785599 
	C56.243366,102.916939 55.774715,105.139969 55.016426,107.586716 
z"/>
<path fill="#6E9038" opacity="1.000000" stroke="none" 
	d="
M15.122992,116.303383 
	C15.522879,118.304100 15.735135,120.730431 15.782995,123.622559 
	C15.618597,124.088341 15.185574,124.096245 15.185574,124.096245 
	C15.102170,121.640495 15.018766,119.184753 15.122992,116.303383 
z"/>
<path fill="#537028" opacity="1.000000" stroke="none" 
	d="
M133.816742,176.095459 
	C133.206696,176.984863 132.276550,177.808975 131.013062,178.535370 
	C131.618683,177.635162 132.557663,176.832687 133.816742,176.095459 
z"/>
<path fill="#A7D25C" opacity="1.000000" stroke="none" 
	d="
M15.160421,124.480225 
	C15.185574,124.096245 15.618597,124.088341 15.830574,124.043777 
	C16.059422,124.954262 16.076290,125.909309 15.840740,126.973740 
	C15.437303,126.343483 15.286285,125.603844 15.160421,124.480225 
z"/>
<path fill="#415D1D" opacity="1.000000" stroke="none" 
	d="
M55.735184,137.837921 
	C55.317596,136.496490 54.925602,134.741226 54.616970,132.598633 
	C55.053814,133.948883 55.407295,135.686493 55.735184,137.837921 
z"/>
<path fill="#415D1D" opacity="1.000000" stroke="none" 
	d="
M54.618431,131.076233 
	C54.054901,130.437439 53.611115,129.464432 53.280319,128.148560 
	C53.841599,128.784470 54.289886,129.763229 54.618431,131.076233 
z"/>
<path fill="#415D1D" opacity="1.000000" stroke="none" 
	d="
M53.734028,112.047638 
	C53.556648,111.063866 53.701168,109.930305 54.191353,108.695496 
	C54.376652,109.695450 54.216290,110.796646 53.734028,112.047638 
z"/>
<path fill="#375216" opacity="1.000000" stroke="none" 
	d="
M66.806442,34.479721 
	C66.069481,34.852871 65.363731,34.936901 64.308456,34.956383 
	C64.779808,34.232944 65.600677,33.574055 66.767944,32.987862 
	C67.022118,33.437244 66.929878,33.813923 66.806442,34.479721 
z"/>
<path fill="#537028" opacity="1.000000" stroke="none" 
	d="
M80.851799,170.690460 
	C80.123085,170.500687 79.230858,170.017197 78.201294,169.232635 
	C78.938744,169.419952 79.813515,169.908340 80.851799,170.690460 
z"/>
<path fill="#ABDA5F" opacity="1.000000" stroke="none" 
	d="
M84.750977,172.978790 
	C84.992058,173.441071 85.034508,173.845871 85.129753,174.551437 
	C84.322754,174.660538 83.462967,174.468872 82.293289,174.151733 
	C81.983406,174.026276 81.964844,173.652893 82.316513,173.360367 
	C83.162506,172.985519 83.656822,172.903183 84.151138,172.820862 
	C84.151138,172.820862 84.552338,172.921295 84.750977,172.978790 
z"/>
<path fill="#375216" opacity="1.000000" stroke="none" 
	d="
M69.880035,31.198254 
	C69.663239,31.817530 69.124512,32.397583 68.254860,32.927193 
	C68.468658,32.304176 69.013390,31.731606 69.880035,31.198254 
z"/>
<path fill="#537028" opacity="1.000000" stroke="none" 
	d="
M84.030403,172.529053 
	C83.656822,172.903183 83.162506,172.985519 82.306503,173.173706 
	C81.864418,172.829468 81.784019,172.379364 81.742889,171.588455 
	C82.491333,171.577515 83.200500,171.907379 84.030403,172.529053 
z"/>
<path fill="#375216" opacity="1.000000" stroke="none" 
	d="
M130.720078,30.915453 
	C130.045029,30.471340 129.354645,29.704288 128.642258,28.595055 
	C129.315079,29.032753 130.009918,29.812634 130.720078,30.915453 
z"/>
<path fill="#ADDD5F" opacity="1.000000" stroke="none" 
	d="
M61.652153,151.841888 
	C61.543591,151.837555 61.364815,151.624893 61.107189,151.210846 
	C61.239109,151.193069 61.423641,151.401093 61.652153,151.841888 
z"/>
<path fill="#375216" opacity="1.000000" stroke="none" 
	d="
M127.509201,27.182991 
	C127.272736,27.226799 127.018211,27.014439 126.747772,26.545082 
	C126.984955,26.500998 127.238037,26.713909 127.509201,27.182991 
z"/>
<path fill="#BAEC6A" opacity="1.000000" stroke="none" 
	d="
M85.282578,26.881596 
	C89.432564,25.742970 94.062981,24.656292 99.105850,23.584877 
	C100.066666,23.728762 100.615036,23.857384 101.582458,24.038643 
	C100.248520,25.051361 98.568253,26.622665 96.727119,26.841692 
	C93.119820,27.270823 89.422859,26.946199 85.282578,26.881596 
z"/>
<path fill="#A7D55C" opacity="1.000000" stroke="none" 
	d="
M137.193390,53.646080 
	C137.172287,53.085785 137.357971,52.297203 137.738113,51.271446 
	C137.755112,51.828781 137.577637,52.623287 137.193390,53.646080 
z"/>
<path fill="#020200" opacity="1.000000" stroke="none" 
	d="
M133.178619,56.339577 
	C133.159698,56.382542 133.406570,56.338650 133.379288,56.267193 
	C133.352005,56.195736 133.197540,56.296608 133.178619,56.339577 
z"/>
</svg>