<svg version="1.1" id="Layer_1" xmlns="http://www.w3.org/2000/svg" xmlns:xlink="http://www.w3.org/1999/xlink" x="0px" y="0px"
	 width="100%" viewBox="0 0 228 236" enable-background="new 0 0 228 236" xml:space="preserve">
<path fill="#020300" opacity="1.000000" stroke="none" 
	d="
M1.000000,93.000000 
	C1.000000,62.000004 1.000000,31.500011 1.000000,1.000012 
	C76.999977,1.000008 152.999954,1.000008 228.999954,1.000004 
	C228.999969,79.666634 228.999969,158.333267 228.999985,236.999908 
	C153.000046,236.999939 77.000092,236.999939 1.000070,236.999969 
	C1.000000,189.166672 1.000000,141.333328 1.000000,93.000000 
M183.825607,190.822296 
	C183.825607,190.822296 183.675659,190.697678 184.300644,190.599670 
	C184.730576,189.941086 185.160507,189.282516 185.925415,188.843964 
	C185.925415,188.843964 185.607819,188.599258 186.227081,188.521317 
	C187.051086,187.328674 187.875092,186.136032 188.919220,184.268570 
	C198.833023,173.482727 206.084137,161.197617 210.191910,146.284866 
	C211.440002,141.040665 213.298401,135.857269 213.827942,130.541489 
	C215.854797,110.194908 212.128510,90.805138 202.653427,72.661301 
	C201.073456,69.635803 198.323441,67.221336 195.601761,63.978832 
	C194.548599,62.917381 193.495453,61.855930 193.004181,60.724297 
	C193.000610,59.766846 193.407074,58.427555 192.927902,57.912979 
	C189.421005,54.147015 185.736511,50.546436 181.953369,46.274231 
	C181.305313,45.846031 180.657257,45.417831 179.821777,44.405899 
	C179.193497,43.993420 178.565231,43.580940 177.531006,42.648720 
	C173.317734,39.777336 169.104477,36.905949 164.366852,33.622982 
	C158.461334,30.921309 152.711258,27.788271 146.622849,25.594076 
	C122.720909,16.980078 99.120651,18.872526 75.972282,28.588829 
	C74.056908,29.392790 72.736481,31.614178 70.125023,33.822510 
	C69.756172,33.979431 69.387314,34.136349 68.642982,33.973118 
	C56.967979,37.455399 49.092583,45.832836 41.210407,55.152580 
	C40.827694,55.598713 40.444981,56.044849 39.564251,56.854977 
	C36.716270,60.902576 33.868290,64.950172 30.372833,69.266396 
	C27.085892,77.536850 23.577904,85.727715 20.564571,94.096687 
	C16.203217,106.209541 16.710268,118.825584 17.612797,131.390778 
	C17.755190,133.373199 19.080872,135.270645 19.866667,137.929123 
	C20.258598,140.623901 20.211536,143.479004 21.125938,145.982986 
	C23.721649,153.091034 26.344826,160.235413 29.678804,167.010391 
	C31.730579,171.179764 34.959225,174.815430 37.914307,178.485550 
	C44.410629,186.553772 50.673801,194.929916 60.980633,199.738602 
	C62.082001,200.467728 63.183372,201.196854 64.591362,202.518723 
	C71.744232,207.528961 79.274071,211.706223 88.456734,213.364075 
	C88.456734,213.364075 88.919235,213.442673 88.919235,213.442673 
	C88.919235,213.442673 89.377769,213.343460 89.839897,213.786194 
	C91.559845,214.202850 93.279793,214.619507 95.531876,215.256989 
	C95.911858,215.227814 96.291840,215.198639 97.295250,215.589676 
	C100.869286,216.035706 104.443321,216.481720 108.934998,217.097870 
	C113.943901,216.986237 118.952797,216.874619 124.078903,216.941177 
	C124.078903,216.941177 124.472458,216.884338 125.121872,217.128082 
	C128.236237,216.502975 131.350616,215.877869 135.182587,215.340988 
	C136.117081,215.162613 137.051575,214.984238 138.645065,214.905685 
	C139.811401,214.400177 140.977722,213.894669 142.777496,213.469940 
	C143.172913,213.342728 143.568329,213.215530 144.474197,213.208939 
	C145.646027,212.780273 146.817871,212.351608 148.744324,212.083969 
	C152.087112,210.980087 155.429901,209.876205 159.244080,208.610428 
	C159.544235,208.425507 159.734543,208.161392 159.999130,207.984360 
	C159.999130,207.984360 159.821457,207.809906 160.438248,207.719147 
	C160.959290,207.128922 161.480316,206.538681 162.341049,205.835480 
	C162.341049,205.835480 162.698685,205.819412 163.416611,205.924835 
	C164.272385,205.271454 165.128159,204.618088 166.316727,203.818848 
	C166.316727,203.818848 166.674103,203.753143 167.405563,203.737000 
	C168.927216,202.477402 170.448868,201.217804 171.994919,200.003372 
	C171.994919,200.003372 171.956680,199.967789 172.572693,199.939987 
	C173.188187,199.419327 173.803696,198.898666 175.046677,198.179794 
	C175.924133,197.337402 176.801590,196.494995 178.013519,195.928192 
	C178.013519,195.928192 177.685165,195.641830 178.353973,195.628387 
	C178.839493,195.019333 179.325012,194.410278 180.010101,193.922516 
	C180.010101,193.922516 179.803177,193.818436 180.453613,193.742477 
	C180.943527,193.137222 181.433426,192.531967 182.000137,191.996338 
	C182.000137,191.996338 181.926605,191.921539 182.519470,191.834824 
	C182.918777,191.443253 183.318069,191.051682 183.825607,190.822296 
z"/>
<path fill="#BAFC51" opacity="1.000000" stroke="none" 
	d="
M64.284737,201.925980 
	C63.183372,201.196854 62.082001,200.467728 61.044136,199.205048 
	C59.372475,194.026810 56.235241,190.814606 51.579247,188.993988 
	C50.406322,188.535355 49.196171,187.676193 48.463039,186.666992 
	C42.614178,178.615753 36.749416,170.570465 31.140799,162.351883 
	C25.891277,154.659485 22.737244,146.265396 22.736889,136.700989 
	C22.736803,134.437332 20.482435,132.173752 19.211948,129.451187 
	C19.202662,121.687813 19.246469,114.383385 19.588490,106.932831 
	C23.837580,103.819557 23.213720,99.968681 21.982494,95.618546 
	C22.336325,93.824409 22.678457,92.409950 23.312759,90.909904 
	C24.018270,90.190636 24.431612,89.556946 24.874741,88.537735 
	C25.164356,87.213684 25.315199,86.227448 25.701809,85.344421 
	C28.094011,79.880714 30.539242,74.440216 32.980240,68.989281 
	C32.993622,68.986549 32.995552,68.961922 33.328415,68.886719 
	C35.063385,66.538246 36.465488,64.264992 37.883057,61.968315 
	C37.898521,61.944904 37.945751,61.914593 38.275211,61.837753 
	C40.376831,59.487610 42.148987,57.214310 43.940651,54.952820 
	C43.960159,54.964630 43.952095,54.919762 44.251595,54.850948 
	C45.027943,54.172672 45.504791,53.563213 46.222298,52.724243 
	C47.435368,51.405804 48.268589,50.137379 49.403175,49.257607 
	C55.901978,44.218391 62.472370,39.271500 69.018463,34.293274 
	C69.387314,34.136349 69.756172,33.979431 70.953110,33.494713 
	C80.276604,28.944885 89.180634,26.247072 98.522621,24.306877 
	C113.797096,21.134592 128.628448,23.168005 143.339325,26.697533 
	C149.485580,28.172180 155.195282,31.466377 161.202744,34.257027 
	C165.486359,37.631470 169.618286,40.758778 173.890198,43.681461 
	C175.024277,44.457359 176.588470,44.604557 177.963959,45.033813 
	C177.972717,45.027210 177.960846,45.041695 177.982971,45.421852 
	C179.382629,46.830948 180.760162,47.859894 182.412354,49.082642 
	C185.938782,53.115791 189.190536,56.955132 192.442307,60.794472 
	C193.495453,61.855930 194.548599,62.917381 195.976105,64.561104 
	C197.376968,67.557503 198.364456,69.989174 199.439362,72.381584 
	C200.979431,75.809288 202.884277,79.105446 204.093292,82.642380 
	C206.193558,88.786720 207.819473,95.091393 209.755432,101.294151 
	C212.622879,110.481400 212.741440,119.840927 211.403137,129.233521 
	C210.552673,135.202393 209.216827,141.102112 208.004349,147.384674 
	C201.091431,165.838272 190.584152,181.360367 175.745193,193.880753 
	C175.076721,194.444778 174.828751,195.507187 174.375534,196.344299 
	C174.366150,196.351120 174.344177,196.360550 174.015396,196.357269 
	C173.169022,196.965393 172.651443,197.576828 172.120361,198.178619 
	C172.106857,198.168961 172.147842,198.190567 171.743469,198.142944 
	C166.642181,200.733093 161.945282,203.370850 156.877396,206.117645 
	C153.618088,207.694931 150.729782,209.163177 147.517639,210.531494 
	C146.157684,210.723557 145.121567,211.015564 143.757706,211.322571 
	C142.944305,211.747849 142.458633,212.158112 141.630463,212.534088 
	C140.208145,212.695267 139.128357,212.890747 137.633133,213.077026 
	C135.081161,213.668442 132.944595,214.269073 130.310638,214.874634 
	C128.032990,215.547806 126.252724,216.216080 124.472458,216.884338 
	C124.472458,216.884338 124.078903,216.941177 123.625793,216.415924 
	C118.087936,215.625366 113.003189,215.360077 107.534515,215.072281 
	C106.122757,215.000687 105.094948,214.951614 103.892273,214.571716 
	C98.500732,213.481659 93.284035,212.722427 87.746460,211.804443 
	C82.678024,209.328674 77.995621,206.862396 73.158142,204.751495 
	C70.328209,203.516617 67.250809,202.848862 64.284737,201.925980 
M150.565887,114.762680 
	C150.973404,114.085724 151.380920,113.408775 151.912567,112.857628 
	C151.912567,112.857628 151.757996,112.771942 152.676056,112.889732 
	C159.837158,114.539085 164.310150,109.499573 169.242599,105.932983 
	C170.262299,105.195648 170.049149,102.753296 170.352066,101.042961 
	C170.352066,101.042961 170.254547,101.024467 170.471893,100.197807 
	C169.511765,93.967178 161.100845,91.148087 155.101410,95.494804 
	C151.578461,98.047272 148.411774,100.015862 144.036285,97.108711 
	C144.138275,94.287735 143.935318,91.701195 139.995316,91.222244 
	C137.324524,87.809212 134.653732,84.396172 132.260147,80.315727 
	C134.284042,78.050507 139.873550,79.882820 139.335953,74.042244 
	C139.335953,74.042244 139.733139,73.894180 140.347275,74.038597 
	C140.556000,74.061020 140.764709,74.083450 141.228912,74.274071 
	C141.568970,74.343201 141.803818,74.207718 142.168106,73.390022 
	C142.444305,72.936470 142.720490,72.482925 143.732910,71.958672 
	C145.140015,69.952766 147.339294,68.112099 147.798920,65.908554 
	C148.965897,60.313931 145.271439,56.289219 142.171524,52.182831 
	C140.219620,49.597168 137.859772,48.761024 133.997391,50.026859 
	C131.767700,50.073074 129.538010,50.119289 126.577606,50.184868 
	C117.259888,55.121910 114.608162,65.525818 120.912766,72.816368 
	C120.130714,73.523842 119.412437,74.751503 118.556526,74.856445 
	C111.733826,75.692909 104.872452,76.216591 98.052933,77.074608 
	C96.315460,77.293221 94.685410,78.365532 92.299896,79.100525 
	C91.198067,79.730423 90.096237,80.360321 88.615730,81.128059 
	C88.615730,81.128059 88.213860,81.158073 87.568901,81.063087 
	C87.052361,81.386673 86.535828,81.710258 85.982727,82.025826 
	C85.982727,82.025826 85.964317,81.993240 85.348343,82.359474 
	C83.605965,91.044823 81.611343,99.690598 80.239273,108.434059 
	C79.650063,112.188744 82.548782,115.016937 85.916878,115.545555 
	C88.080910,115.885193 90.608688,113.907173 93.669853,112.689941 
	C94.422569,108.123459 95.175278,103.556976 95.795799,98.242958 
	C95.881958,97.491966 95.968117,96.740974 96.744308,95.832809 
	C98.411873,95.465813 100.079437,95.098824 101.747002,94.731827 
	C102.128998,96.590752 103.153473,98.594856 102.772408,100.281364 
	C101.633942,105.319931 99.246246,110.151093 98.644417,115.217438 
	C97.861427,121.808807 92.944252,127.701767 95.593697,135.224640 
	C95.568077,135.580612 95.405380,135.855377 94.402626,136.213745 
	C93.280777,137.900681 91.491257,139.468628 91.165344,141.297394 
	C90.275269,146.291855 88.986641,150.412079 84.458557,153.839951 
	C80.544624,156.802917 78.080643,161.681198 74.471954,166.039581 
	C74.224220,166.350830 73.976486,166.662094 73.028259,167.093277 
	C68.002502,169.348083 66.586090,173.531509 69.062912,178.805115 
	C70.320854,181.483505 75.545914,182.617599 79.168877,180.817276 
	C80.775299,180.019012 82.340965,178.977966 83.637543,177.744736 
	C89.276840,172.381104 95.093109,167.160080 100.281136,161.380966 
	C103.651627,157.626465 108.182991,153.708237 105.243568,147.057388 
	C105.243568,147.057388 105.615631,146.760651 106.308357,146.643707 
	C107.538193,143.762314 108.768028,140.880920 110.654274,137.784790 
	C111.607925,136.885406 113.060463,136.149368 113.418709,135.055069 
	C114.371635,132.144257 116.318085,131.738510 119.115204,132.680542 
	C119.733940,133.135696 120.352676,133.590836 121.221352,134.682587 
	C121.560394,135.026917 121.845924,135.459579 122.246544,135.702240 
	C127.846596,139.094315 127.794136,141.331421 122.800156,145.285919 
	C120.720558,146.932663 119.594009,149.782990 117.976997,152.524689 
	C117.976997,152.524689 117.898247,152.961914 117.164757,152.988159 
	C112.458511,154.610031 112.164658,156.321274 116.559364,160.069199 
	C116.960014,160.068298 117.360657,160.067398 118.158333,160.454041 
	C118.485931,160.896454 118.813538,161.338867 119.230118,162.470337 
	C122.007164,166.033066 124.573181,165.040924 127.555733,161.806046 
	C128.292068,161.170731 129.028397,160.535416 130.365021,160.130051 
	C131.672913,159.700897 133.257217,159.604935 134.242783,158.787262 
	C139.697052,154.262207 145.422272,149.938751 150.145050,144.722641 
	C151.871475,142.815872 151.776047,138.508484 151.176651,135.568420 
	C150.883392,134.129959 147.532608,133.314804 145.018951,131.966827 
	C144.023163,131.315247 143.027359,130.663666 141.677170,129.438919 
	C137.458633,126.619850 133.240097,123.800789 128.997711,120.080467 
	C129.041763,117.092972 129.085815,114.105484 129.716965,110.801949 
	C130.485580,109.646790 131.254196,108.491638 132.310577,106.903976 
	C133.575623,107.675896 134.739639,108.386169 136.093048,109.781296 
	C137.185959,112.501915 138.041550,115.489967 141.997864,114.992889 
	C141.997864,114.992889 142.000000,115.014107 142.243988,115.661278 
	C144.249985,117.622231 145.865448,117.493675 147.186584,114.623398 
	C147.186584,114.623398 147.383636,114.763802 148.238174,114.870155 
	C148.807297,114.887283 149.376404,114.904411 150.565887,114.762680 
z"/>
<path fill="#9CC656" opacity="1.000000" stroke="none" 
	d="
M161.103470,33.933270 
	C155.195282,31.466377 149.485580,28.172180 143.339325,26.697533 
	C128.628448,23.168005 113.797096,21.134592 98.522621,24.306877 
	C89.180634,26.247072 80.276604,28.944885 71.460403,33.171955 
	C72.736481,31.614178 74.056908,29.392790 75.972282,28.588829 
	C99.120651,18.872526 122.720909,16.980078 146.622849,25.594076 
	C152.711258,27.788271 158.461334,30.921309 164.249298,33.851181 
	C163.122314,34.030682 162.112900,33.981976 161.103470,33.933270 
z"/>
<path fill="#B4E45E" opacity="1.000000" stroke="none" 
	d="
M19.265041,129.910141 
	C20.482435,132.173752 22.736803,134.437332 22.736889,136.700989 
	C22.737244,146.265396 25.891277,154.659485 31.140799,162.351883 
	C36.749416,170.570465 42.614178,178.615753 48.463039,186.666992 
	C49.196171,187.676193 50.406322,188.535355 51.579247,188.993988 
	C56.235241,190.814606 59.372475,194.026810 60.913200,198.880783 
	C50.673801,194.929916 44.410629,186.553772 37.914307,178.485550 
	C34.959225,174.815430 31.730579,171.179764 29.678804,167.010391 
	C26.344826,160.235413 23.721649,153.091034 21.125938,145.982986 
	C20.211536,143.479004 20.258598,140.623901 19.875654,137.162994 
	C19.678110,134.234619 19.471577,132.072372 19.265041,129.910141 
z"/>
<path fill="#A7D35D" opacity="1.000000" stroke="none" 
	d="
M208.098648,147.032837 
	C209.216827,141.102112 210.552673,135.202393 211.403137,129.233521 
	C212.741440,119.840927 212.622879,110.481400 209.755432,101.294151 
	C207.819473,95.091393 206.193558,88.786720 204.093292,82.642380 
	C202.884277,79.105446 200.979431,75.809288 199.439362,72.381584 
	C198.364456,69.989174 197.376968,67.557503 196.232269,64.833939 
	C198.323441,67.221336 201.073456,69.635803 202.653427,72.661301 
	C212.128510,90.805138 215.854797,110.194908 213.827942,130.541489 
	C213.298401,135.857269 211.440002,141.040665 209.749237,146.636642 
	C208.903931,147.003220 208.501297,147.018021 208.098648,147.032837 
z"/>
<path fill="#9DC959" opacity="1.000000" stroke="none" 
	d="
M208.004349,147.384674 
	C208.501297,147.018021 208.903931,147.003220 209.609436,146.986786 
	C206.084137,161.197617 198.833023,173.482727 188.492584,184.658173 
	C187.246582,186.231613 186.427200,187.415436 185.607819,188.599258 
	C185.607819,188.599258 185.925415,188.843964 185.427002,188.755585 
	C184.510941,189.344025 184.093292,190.020844 183.675659,190.697662 
	C183.675659,190.697678 183.825607,190.822296 183.449173,190.716187 
	C182.690689,191.047226 182.308655,191.484390 181.926605,191.921539 
	C181.926605,191.921539 182.000137,191.996338 181.654358,192.021088 
	C180.806763,192.636688 180.304977,193.227570 179.803192,193.818451 
	C179.803177,193.818436 180.010101,193.922516 179.591293,193.863220 
	C178.676712,194.416565 178.180939,195.029205 177.685165,195.641830 
	C177.685165,195.641830 178.013519,195.928192 177.501129,195.766342 
	C176.120819,195.848816 175.252869,196.093140 174.384918,196.337463 
	C174.828751,195.507187 175.076721,194.444778 175.745193,193.880753 
	C190.584152,181.360367 201.091431,165.838272 208.004349,147.384674 
z"/>
<path fill="#AAD35E" opacity="1.000000" stroke="none" 
	d="
M19.211948,129.451187 
	C19.471577,132.072372 19.678110,134.234619 19.872044,136.802124 
	C19.080872,135.270645 17.755190,133.373199 17.612797,131.390778 
	C16.710268,118.825584 16.203217,106.209541 20.564571,94.096687 
	C23.577904,85.727715 27.085892,77.536850 31.020935,69.144897 
	C32.101643,69.012939 32.534252,69.002472 32.966858,68.992004 
	C30.539242,74.440216 28.094011,79.880714 25.701809,85.344421 
	C25.315199,86.227448 25.164356,87.213684 24.600742,88.641159 
	C23.871504,89.751900 23.446047,90.373695 23.020592,90.995483 
	C22.678457,92.409950 22.336325,93.824409 21.770889,95.915131 
	C20.795149,100.087242 20.042713,103.583099 19.290276,107.078964 
	C19.246469,114.383385 19.202662,121.687813 19.211948,129.451187 
z"/>
<path fill="#99C257" opacity="1.000000" stroke="none" 
	d="
M68.830719,34.133194 
	C62.472370,39.271500 55.901978,44.218391 49.403175,49.257607 
	C48.268589,50.137379 47.435368,51.405804 45.920868,52.791458 
	C44.903214,53.698715 44.427654,54.309238 43.952095,54.919762 
	C43.952095,54.919762 43.960159,54.964630 43.575096,54.945244 
	C42.702061,54.905884 42.214081,54.885906 41.726105,54.865932 
	C49.092583,45.832836 56.967979,37.455399 68.830719,34.133194 
z"/>
<path fill="#96C150" opacity="1.000000" stroke="none" 
	d="
M64.438049,202.222351 
	C67.250809,202.848862 70.328209,203.516617 73.158142,204.751495 
	C77.995621,206.862396 82.678024,209.328674 87.740196,212.097305 
	C88.052605,212.743942 88.050392,212.938950 88.048180,213.133972 
	C79.274071,211.706223 71.744232,207.528961 64.438049,202.222351 
z"/>
<path fill="#AADA5C" opacity="1.000000" stroke="none" 
	d="
M161.202744,34.257027 
	C162.112900,33.981976 163.122314,34.030682 164.511475,34.056973 
	C169.104477,36.905949 173.317734,39.777336 177.710892,43.220108 
	C177.912247,44.207806 177.933716,44.624115 177.955185,45.040421 
	C176.588470,44.604557 175.024277,44.457359 173.890198,43.681461 
	C169.618286,40.758778 165.486359,37.631470 161.202744,34.257027 
z"/>
<path fill="#9DC959" opacity="1.000000" stroke="none" 
	d="
M157.248383,206.008606 
	C161.945282,203.370850 166.642181,200.733093 171.717316,198.440247 
	C172.049255,199.179382 172.002960,199.573578 171.956680,199.967789 
	C171.956680,199.967789 171.994919,200.003372 171.623962,199.980896 
	C169.726700,201.223328 168.200409,202.488235 166.674103,203.753143 
	C166.674103,203.753143 166.316727,203.818848 165.790222,203.849197 
	C164.408707,204.526169 163.553696,205.172791 162.698685,205.819412 
	C162.698685,205.819412 162.341049,205.835480 161.852737,205.822479 
	C160.937057,205.884155 160.509689,205.958817 159.725800,206.027283 
	C158.662308,206.016937 157.955338,206.012772 157.248383,206.008606 
z"/>
<path fill="#8DB14B" opacity="1.000000" stroke="none" 
	d="
M192.723236,60.759384 
	C189.190536,56.955132 185.938782,53.115791 182.353760,48.809864 
	C181.923447,47.984245 181.826401,47.625210 181.824020,47.173042 
	C181.918686,47.079914 182.108047,46.893681 182.108047,46.893684 
	C185.736511,50.546436 189.421005,54.147015 192.927902,57.912979 
	C193.407074,58.427555 193.000610,59.766846 192.723236,60.759384 
z"/>
<path fill="#9CC358" opacity="1.000000" stroke="none" 
	d="
M156.877396,206.117645 
	C157.955338,206.012772 158.662308,206.016937 159.640106,206.316315 
	C159.881119,207.011002 159.851288,207.410446 159.821457,207.809906 
	C159.821457,207.809906 159.999130,207.984360 159.654816,207.956848 
	C159.131226,208.210327 158.951950,208.491333 158.772690,208.772339 
	C155.429901,209.876205 152.087112,210.980087 148.355881,211.783691 
	C147.950546,211.195709 147.908554,210.911713 147.841461,210.631424 
	C150.729782,209.163177 153.618088,207.694931 156.877396,206.117645 
z"/>
<path fill="#ACDD60" opacity="1.000000" stroke="none" 
	d="
M107.918449,215.094803 
	C113.003189,215.360077 118.087936,215.625366 123.567184,216.326828 
	C118.952797,216.874619 113.943901,216.986237 108.466095,216.706512 
	C107.970947,215.908386 107.944702,215.501587 107.918449,215.094803 
z"/>
<path fill="#ACDD60" opacity="1.000000" stroke="none" 
	d="
M88.252457,213.249023 
	C88.050392,212.938950 88.052605,212.743942 88.061081,212.256058 
	C93.284035,212.722427 98.500732,213.481659 103.429817,214.594238 
	C100.985413,215.021530 98.828621,215.095490 96.671822,215.169464 
	C96.291840,215.198639 95.911858,215.227814 95.014603,214.862839 
	C92.790817,214.093613 91.084297,213.718536 89.377769,213.343460 
	C89.377769,213.343460 88.919235,213.442673 88.919235,213.442673 
	C88.919235,213.442673 88.456734,213.364075 88.252457,213.249023 
z"/>
<path fill="#99C257" opacity="1.000000" stroke="none" 
	d="
M32.980240,68.989273 
	C32.534252,69.002472 32.101643,69.012939 31.344675,69.010590 
	C33.868290,64.950172 36.716270,60.902576 39.819576,57.002022 
	C39.365185,58.737579 38.655472,60.326088 37.945755,61.914593 
	C37.945751,61.914593 37.898521,61.944904 37.608902,62.147972 
	C35.878036,64.554672 34.436794,66.758293 32.995552,68.961922 
	C32.995552,68.961922 32.993622,68.986549 32.980240,68.989273 
z"/>
<path fill="#96C150" opacity="1.000000" stroke="none" 
	d="
M96.983536,215.379578 
	C98.828621,215.095490 100.985413,215.021530 103.604675,214.925049 
	C105.094948,214.951614 106.122757,215.000687 107.534515,215.072281 
	C107.944702,215.501587 107.970947,215.908386 108.007278,216.621460 
	C104.443321,216.481720 100.869286,216.035706 96.983536,215.379578 
z"/>
<path fill="#93BC4D" opacity="1.000000" stroke="none" 
	d="
M124.797165,217.006210 
	C126.252724,216.216080 128.032990,215.547806 130.770538,214.913025 
	C132.640228,215.048569 133.552597,215.150665 134.464981,215.252762 
	C131.350616,215.877869 128.236237,216.502975 124.797165,217.006210 
z"/>
<path fill="#AEDC62" opacity="1.000000" stroke="none" 
	d="
M38.275215,61.837753 
	C38.655472,60.326088 39.365185,58.737579 40.068584,56.820026 
	C40.444981,56.044849 40.827694,55.598713 41.468254,55.009254 
	C42.214081,54.885906 42.702061,54.905884 43.555588,54.933434 
	C42.148987,57.214310 40.376831,59.487610 38.275215,61.837753 
z"/>
<path fill="#93BC4D" opacity="1.000000" stroke="none" 
	d="
M147.517639,210.531494 
	C147.908554,210.911713 147.950546,211.195709 147.978577,211.703186 
	C146.817871,212.351608 145.646027,212.780273 144.231293,212.850037 
	C144.020752,212.096603 144.053085,211.702087 144.085434,211.307556 
	C145.121567,211.015564 146.157684,210.723557 147.517639,210.531494 
z"/>
<path fill="#9CC358" opacity="1.000000" stroke="none" 
	d="
M134.823792,215.296875 
	C133.552597,215.150665 132.640228,215.048569 131.267944,214.908096 
	C132.944595,214.269073 135.081161,213.668442 137.611877,213.362610 
	C137.999390,214.040222 137.992737,214.423035 137.986084,214.805847 
	C137.051575,214.984238 136.117081,215.162613 134.823792,215.296875 
z"/>
<path fill="#93BC4D" opacity="1.000000" stroke="none" 
	d="
M138.315582,214.855774 
	C137.992737,214.423035 137.999390,214.040222 138.027298,213.371826 
	C139.128357,212.890747 140.208145,212.695267 141.679443,212.735748 
	C142.070953,212.971680 142.144058,213.389160 142.144058,213.389160 
	C140.977722,213.894669 139.811401,214.400177 138.315582,214.855774 
z"/>
<path fill="#2F430E" opacity="1.000000" stroke="none" 
	d="
M167.039825,203.745087 
	C168.200409,202.488235 169.726700,201.223328 171.611755,199.958313 
	C170.448868,201.217804 168.927216,202.477402 167.039825,203.745087 
z"/>
<path fill="#96C150" opacity="1.000000" stroke="none" 
	d="
M89.608833,213.564819 
	C91.084297,213.718536 92.790817,214.093613 94.748543,214.752411 
	C93.279793,214.619507 91.559845,214.202850 89.608833,213.564819 
z"/>
<path fill="#2F430E" opacity="1.000000" stroke="none" 
	d="
M185.917450,188.560287 
	C186.427200,187.415436 187.246582,186.231613 188.382538,184.995590 
	C187.875092,186.136032 187.051086,187.328674 185.917450,188.560287 
z"/>
<path fill="#2F430E" opacity="1.000000" stroke="none" 
	d="
M174.375549,196.344299 
	C175.252869,196.093140 176.120819,195.848816 177.333893,195.628540 
	C176.801590,196.494995 175.924133,197.337402 174.624451,198.179382 
	C174.202240,198.178986 173.985794,197.985077 174.074463,197.720367 
	C174.223480,197.090637 174.283829,196.725586 174.344177,196.360550 
	C174.344177,196.360550 174.366150,196.351120 174.375549,196.344299 
z"/>
<path fill="#2F430E" opacity="1.000000" stroke="none" 
	d="
M163.057648,205.872131 
	C163.553696,205.172791 164.408707,204.526169 165.623825,203.922134 
	C165.128159,204.618088 164.272385,205.271454 163.057648,205.872131 
z"/>
<path fill="#2F430E" opacity="1.000000" stroke="none" 
	d="
M160.129852,207.764526 
	C159.851288,207.410446 159.881119,207.011002 159.996643,206.322510 
	C160.509689,205.958817 160.937057,205.884155 161.682892,205.878967 
	C161.480316,206.538681 160.959290,207.128922 160.129852,207.764526 
z"/>
<path fill="#9CC358" opacity="1.000000" stroke="none" 
	d="
M142.460785,213.429550 
	C142.144058,213.389160 142.070953,212.971680 142.021957,212.770020 
	C142.458633,212.158112 142.944305,211.747849 143.757706,211.322571 
	C144.053085,211.702087 144.020752,212.096603 143.976074,212.789734 
	C143.568329,213.215530 143.172913,213.342728 142.460785,213.429550 
z"/>
<path fill="#8DB14B" opacity="1.000000" stroke="none" 
	d="
M180.009201,44.989635 
	C180.657257,45.417831 181.305313,45.846031 182.030701,46.583954 
	C182.108047,46.893681 181.918686,47.079914 181.563690,47.048275 
	C180.682281,46.475281 180.155869,45.933929 179.724426,45.291870 
	C179.819412,45.191166 180.009201,44.989635 180.009201,44.989635 
z"/>
<path fill="#2F430E" opacity="1.000000" stroke="none" 
	d="
M172.264679,199.953888 
	C172.002960,199.573578 172.049255,199.179382 172.121689,198.487869 
	C172.147842,198.190567 172.106857,198.168961 172.432526,198.187698 
	C173.167389,198.132645 173.576599,198.058853 173.985794,197.985077 
	C173.985794,197.985077 174.202240,198.178986 174.310730,198.278503 
	C173.803696,198.898666 173.188187,199.419327 172.264679,199.953888 
z"/>
<path fill="#8DB14B" opacity="1.000000" stroke="none" 
	d="
M177.963959,45.033813 
	C177.933716,44.624115 177.912247,44.207806 177.913864,43.479980 
	C178.565231,43.580940 179.193497,43.993420 179.915497,44.697769 
	C180.009201,44.989635 179.819412,45.191166 179.450836,45.217445 
	C178.708450,45.176380 178.334641,45.109035 177.960846,45.041695 
	C177.960846,45.041695 177.972717,45.027210 177.963959,45.033813 
z"/>
<path fill="#2F430E" opacity="1.000000" stroke="none" 
	d="
M178.019562,195.635101 
	C178.180939,195.029205 178.676712,194.416565 179.491516,193.802582 
	C179.325012,194.410278 178.839493,195.019333 178.019562,195.635101 
z"/>
<path fill="#2F430E" opacity="1.000000" stroke="none" 
	d="
M180.128403,193.780457 
	C180.304977,193.227570 180.806763,192.636688 181.615936,191.986267 
	C181.433426,192.531967 180.943527,193.137222 180.128403,193.780457 
z"/>
<path fill="#2F430E" opacity="1.000000" stroke="none" 
	d="
M183.988144,190.648666 
	C184.093292,190.020844 184.510941,189.344025 185.259521,188.645569 
	C185.160507,189.282516 184.730576,189.941086 183.988144,190.648666 
z"/>
<path fill="#2F430E" opacity="1.000000" stroke="none" 
	d="
M182.223038,191.878174 
	C182.308655,191.484390 182.690689,191.047226 183.395050,190.635101 
	C183.318069,191.051682 182.918777,191.443253 182.223038,191.878174 
z"/>
<path fill="#2F430E" opacity="1.000000" stroke="none" 
	d="
M159.008392,208.691376 
	C158.951950,208.491333 159.131226,208.210327 159.562744,207.873718 
	C159.734543,208.161392 159.544235,208.425507 159.008392,208.691376 
z"/>
<path fill="#2B3D0E" opacity="1.000000" stroke="none" 
	d="
M88.213860,81.158073 
	C88.213860,81.158073 88.615730,81.128059 89.259850,81.106781 
	C93.754265,80.507881 97.604553,79.930260 101.894211,79.384247 
	C111.230278,79.305061 120.219398,77.774567 128.959351,81.488281 
	C131.729416,84.844383 134.429657,87.856735 136.785431,90.848495 
	C134.635025,89.544449 132.829132,88.260994 130.691071,86.871925 
	C127.936539,85.497299 125.558502,83.245262 123.083885,83.133598 
	C113.605354,82.705887 104.069641,82.579918 94.614868,83.220718 
	C92.015640,83.396889 88.012909,86.237671 87.449303,88.539993 
	C85.966576,94.596756 85.948433,101.025139 85.542381,107.318123 
	C85.482140,108.251678 86.279938,109.517601 87.069824,110.117439 
	C87.493576,110.439209 88.861870,109.842972 89.595100,109.350235 
	C90.545433,108.711578 91.287575,107.763138 92.423805,107.122513 
	C92.777611,108.453232 92.826958,109.609512 92.520630,110.929413 
	C89.668365,111.676483 86.876770,113.178375 84.783508,112.506050 
	C83.484741,112.088905 82.458954,108.296394 82.670128,106.152870 
	C83.466423,98.069939 84.819626,90.041855 85.964317,81.993240 
	C85.964317,81.993240 85.982727,82.025826 86.243500,82.095528 
	C87.074127,81.829514 87.643997,81.493790 88.213860,81.158073 
z"/>
<path fill="#293910" opacity="1.000000" stroke="none" 
	d="
M96.054268,95.989983 
	C95.968117,96.740974 95.881958,97.491966 95.669235,98.867569 
	C94.392792,100.381516 93.242920,101.270859 91.924309,101.791046 
	C90.064499,93.915367 91.992279,90.758003 99.902084,88.079330 
	C105.101906,86.318405 109.882111,89.594757 109.957863,94.985199 
	C109.981010,96.632851 109.952744,98.281212 109.621872,100.067169 
	C108.192451,103.803185 107.089188,107.401276 105.979286,111.422333 
	C105.964561,113.537018 105.956482,115.228752 105.657776,117.015610 
	C104.887718,117.723183 104.408272,118.335617 103.716812,119.227654 
	C102.991844,121.332710 102.478882,123.158165 101.749557,125.279419 
	C99.298958,133.381332 97.209229,141.234283 94.706863,148.953476 
	C94.214760,150.471481 92.129463,151.473038 90.787338,152.337036 
	C92.232361,146.657181 93.668983,141.353058 95.105606,136.048935 
	C95.405380,135.855377 95.568077,135.580612 95.831406,134.806061 
	C99.640411,121.923271 103.286057,109.479263 106.686409,96.968590 
	C107.098900,95.450920 106.558586,92.306480 105.825493,92.092842 
	C103.273117,91.349037 100.386749,91.213539 97.750404,91.628487 
	C96.975395,91.750481 96.608307,94.464111 96.054268,95.989983 
z"/>
<path fill="#273C0D" opacity="1.000000" stroke="none" 
	d="
M139.733139,73.894180 
	C139.733139,73.894180 139.335953,74.042244 138.890808,74.265480 
	C137.662109,74.823418 136.878540,75.158119 135.781311,75.435791 
	C134.754822,75.765884 134.041977,76.153008 133.039764,76.439728 
	C131.947998,76.356522 131.145599,76.373695 130.021515,76.213188 
	C127.474541,75.022575 125.249275,74.009644 123.054962,72.708145 
	C122.798035,72.193199 122.510155,71.966820 122.119217,71.769257 
	C122.016144,71.798080 122.220352,71.720451 122.095490,71.368866 
	C118.052338,62.459229 118.941994,58.744041 126.185867,52.682529 
	C126.818863,52.152859 126.946152,51.018826 127.308319,50.165504 
	C129.538010,50.119289 131.767700,50.073074 134.572052,50.363792 
	C136.413849,51.452305 137.673157,52.217484 138.949524,52.953075 
	C144.052032,55.893764 146.379868,63.262787 142.236359,70.801208 
	C141.276810,71.991592 140.504974,72.942886 139.733139,73.894180 
M140.769073,61.552242 
	C139.470322,52.864326 130.970245,50.854576 125.490860,56.418056 
	C122.164215,59.795746 121.259911,63.854420 123.678238,68.108772 
	C126.657684,73.350227 128.882874,74.060898 135.754486,71.965744 
	C139.428116,70.845650 141.729156,66.717087 140.769073,61.552242 
z"/>
<path fill="#ADDC5D" opacity="1.000000" stroke="none" 
	d="
M105.030464,147.482910 
	C108.182991,153.708237 103.651627,157.626465 100.281136,161.380966 
	C95.093109,167.160080 89.276840,172.381104 83.637543,177.744736 
	C82.340965,178.977966 80.775299,180.019012 79.168877,180.817276 
	C75.545914,182.617599 70.320854,181.483505 69.062912,178.805115 
	C66.586090,173.531509 68.002502,169.348083 73.393265,167.389130 
	C73.716225,168.395889 73.674164,169.106796 73.268707,169.875549 
	C72.522316,172.661682 72.139328,175.389954 71.919334,178.455887 
	C75.313797,180.842957 78.002556,180.286423 80.097687,177.079819 
	C80.048813,177.045532 80.112923,177.146271 80.443222,177.080627 
	C83.562660,174.032730 86.351807,171.050491 89.477325,167.998047 
	C96.322487,162.182037 102.741600,156.369507 105.030464,147.482910 
z"/>
<path fill="#B2E65A" opacity="1.000000" stroke="none" 
	d="
M96.399292,95.911392 
	C96.608307,94.464111 96.975395,91.750481 97.750404,91.628487 
	C100.386749,91.213539 103.273117,91.349037 105.825493,92.092842 
	C106.558586,92.306480 107.098900,95.450920 106.686409,96.968590 
	C103.286057,109.479263 99.640411,121.923271 95.730064,134.580658 
	C92.944252,127.701767 97.861427,121.808807 98.644417,115.217438 
	C99.246246,110.151093 101.633942,105.319931 102.772408,100.281364 
	C103.153473,98.594856 102.128998,96.590752 101.747002,94.731827 
	C100.079437,95.098824 98.411873,95.465813 96.399292,95.911392 
z"/>
<path fill="#BFEE6C" opacity="1.000000" stroke="none" 
	d="
M123.024017,72.996719 
	C125.249275,74.009644 127.474541,75.022575 129.837769,76.571564 
	C129.664169,78.373810 129.352615,79.639984 128.992844,80.959198 
	C128.944641,81.012230 128.889511,81.144539 128.889511,81.144539 
	C120.219398,77.774567 111.230278,79.305061 101.428543,79.267426 
	C98.017662,79.094528 95.511833,79.070061 93.005997,79.045593 
	C94.685410,78.365532 96.315460,77.293221 98.052933,77.074608 
	C104.872452,76.216591 111.733826,75.692909 118.556526,74.856445 
	C119.412437,74.751503 120.130714,73.523842 121.269257,72.374756 
	C121.823952,71.862244 122.022148,71.791351 122.220352,71.720451 
	C122.220352,71.720451 122.016144,71.798080 122.188843,72.014893 
	C122.582375,72.486702 122.803192,72.741714 123.024017,72.996719 
z"/>
<path fill="#A6D559" opacity="1.000000" stroke="none" 
	d="
M85.656326,82.176361 
	C84.819626,90.041855 83.466423,98.069939 82.670128,106.152870 
	C82.458954,108.296394 83.484741,112.088905 84.783508,112.506050 
	C86.876770,113.178375 89.668365,111.676483 92.552887,111.295700 
	C92.951683,111.988251 92.962555,112.478127 92.973427,112.968010 
	C90.608688,113.907173 88.080910,115.885193 85.916878,115.545555 
	C82.548782,115.016937 79.650063,112.188744 80.239273,108.434059 
	C81.611343,99.690598 83.605965,91.044823 85.656326,82.176361 
z"/>
<path fill="#B0DF5F" opacity="1.000000" stroke="none" 
	d="
M145.565689,132.217545 
	C147.532608,133.314804 150.883392,134.129959 151.176651,135.568420 
	C151.776047,138.508484 151.871475,142.815872 150.145050,144.722641 
	C145.422272,149.938751 139.697052,154.262207 134.242783,158.787262 
	C133.257217,159.604935 131.672913,159.700897 130.180634,159.700104 
	C131.071182,157.881607 132.146133,156.493073 133.556122,155.035278 
	C136.726456,152.374557 139.561783,149.783081 142.733688,147.190170 
	C144.802795,145.538315 146.535309,143.887878 148.608231,142.095184 
	C152.511810,137.077759 147.060272,135.335159 145.565689,132.217545 
z"/>
<path fill="#B2E65A" opacity="1.000000" stroke="none" 
	d="
M94.754120,136.131348 
	C93.668983,141.353058 92.232361,146.657181 90.802170,152.339600 
	C90.808594,152.717911 90.774536,152.719437 90.434769,152.741241 
	C88.933914,154.048859 87.772827,155.334671 86.600861,156.623169 
	C86.589973,156.625854 86.569336,156.634048 86.242233,156.709595 
	C82.268646,159.761032 78.622169,162.736908 74.975693,165.712784 
	C78.080643,161.681198 80.544624,156.802917 84.458557,153.839951 
	C88.986641,150.412079 90.275269,146.291855 91.165344,141.297394 
	C91.491257,139.468628 93.280777,137.900681 94.754120,136.131348 
z"/>
<path fill="#2C480C" opacity="1.000000" stroke="none" 
	d="
M133.221100,155.104523 
	C132.146133,156.493073 131.071182,157.881607 129.880478,159.585114 
	C129.028397,160.535416 128.292068,161.170731 126.858261,161.918335 
	C123.820908,161.947510 121.481018,161.864395 119.141144,161.781296 
	C118.813538,161.338867 118.485931,160.896454 118.001503,159.862000 
	C117.748711,158.476837 117.652756,157.683701 117.627350,156.562164 
	C117.784363,155.795471 117.870834,155.357193 118.268723,154.762726 
	C118.723206,153.735992 118.866257,152.865433 119.183632,151.692123 
	C123.404305,148.697708 127.450653,146.006042 131.495041,143.682983 
	C130.939163,145.045319 130.597931,146.285172 129.789200,146.984070 
	C127.811249,148.693405 125.131332,149.797623 123.654640,151.818253 
	C122.328537,153.632828 122.229050,156.343796 121.588478,158.659348 
	C123.608673,158.382385 125.722137,158.379517 127.617134,157.734650 
	C128.939133,157.284790 129.961777,155.955276 131.468842,155.029190 
	C132.286728,155.061310 132.753906,155.082916 133.221100,155.104523 
z"/>
<path fill="#B5E860" opacity="1.000000" stroke="none" 
	d="
M144.086914,97.916664 
	C148.411774,100.015862 151.578461,98.047272 155.101410,95.494804 
	C161.100845,91.148087 169.511765,93.967178 170.105331,100.406349 
	C168.944336,99.645752 168.149887,98.676613 167.346985,97.704140 
	C167.338531,97.700813 167.323196,97.690620 167.227722,97.326889 
	C165.005524,97.235092 162.878799,97.507027 160.790970,97.818314 
	C160.829880,97.857674 160.814072,97.748123 160.425751,97.745087 
	C157.268768,99.078758 154.500122,100.415466 151.766998,101.796967 
	C151.802490,101.841759 151.796310,101.727631 151.367966,101.717941 
	C148.705826,101.711967 146.472046,101.715691 144.190262,101.771408 
	C144.142273,101.823410 144.273590,101.770668 144.275482,101.416504 
	C144.083176,100.145958 143.888947,99.229576 143.792572,98.213860 
	C143.890411,98.114525 144.086914,97.916664 144.086914,97.916664 
z"/>
<path fill="#304412" opacity="1.000000" stroke="none" 
	d="
M167.355438,97.707474 
	C168.149887,98.676613 168.944336,99.645752 169.996658,100.819679 
	C170.254547,101.024467 170.352066,101.042961 170.082733,101.254135 
	C167.988510,103.276886 166.432861,105.553726 164.280441,106.799324 
	C160.290405,109.108330 155.951569,110.814644 151.757996,112.771942 
	C151.757996,112.771942 151.912567,112.857628 151.576141,112.866653 
	C150.823502,113.256714 150.407288,113.637756 149.633850,114.003387 
	C148.645645,114.246582 148.014633,114.505196 147.383636,114.763809 
	C147.383636,114.763802 147.186584,114.623398 146.672424,114.690720 
	C144.772171,114.843399 143.386078,114.928757 142.000000,115.014107 
	C142.000000,115.014107 141.997864,114.992889 141.829865,114.727356 
	C140.979416,113.447533 140.296951,112.433235 139.979919,111.415466 
	C142.527679,111.641296 144.955719,112.598129 146.845215,111.960121 
	C152.009003,110.216515 156.948166,107.806213 161.971695,105.649246 
	C165.455688,104.153305 167.760300,101.845612 167.355438,97.707474 
z"/>
<path fill="#B3E45E" opacity="1.000000" stroke="none" 
	d="
M142.424057,70.562126 
	C146.379868,63.262787 144.052032,55.893764 138.949524,52.953075 
	C137.673157,52.217484 136.413849,51.452305 134.990723,50.389404 
	C137.859772,48.761024 140.219620,49.597168 142.171524,52.182831 
	C145.271439,56.289219 148.965897,60.313931 147.798920,65.908554 
	C147.339294,68.112099 145.140015,69.952766 143.257965,71.612907 
	C142.663376,71.032135 142.543716,70.797134 142.424057,70.562126 
z"/>
<path fill="#273C0D" opacity="1.000000" stroke="none" 
	d="
M105.137016,147.270142 
	C102.741600,156.369507 96.322487,162.182037 89.135559,167.990845 
	C88.002678,168.057755 87.547958,168.061691 87.173798,167.738251 
	C89.273155,165.070435 90.927193,162.203217 93.387123,160.499802 
	C98.420891,157.014099 101.419022,152.443024 103.160988,146.712936 
	C103.679810,145.006317 105.106369,143.575638 106.138741,142.417252 
	C105.978859,144.130875 105.797241,145.445755 105.615631,146.760651 
	C105.615631,146.760651 105.243568,147.057388 105.137016,147.270142 
z"/>
<path fill="#BAF35B" opacity="1.000000" stroke="none" 
	d="
M131.497009,143.314377 
	C127.450653,146.006042 123.404305,148.697708 118.939438,151.710938 
	C118.520935,152.032501 118.034103,152.086029 118.034103,152.086029 
	C119.594009,149.782990 120.720558,146.932663 122.800156,145.285919 
	C127.794136,141.331421 127.846596,139.094315 122.246544,135.702240 
	C121.845924,135.459579 121.560394,135.026917 121.467667,134.345184 
	C122.206940,133.964630 122.699898,133.921463 123.533783,133.881226 
	C124.941620,134.558578 126.008514,135.232986 127.173508,136.222565 
	C128.615982,138.615921 129.960358,140.694122 131.337341,142.913300 
	C131.369965,143.054306 131.497009,143.314377 131.497009,143.314377 
z"/>
<path fill="#A2CC59" opacity="1.000000" stroke="none" 
	d="
M122.095490,71.368866 
	C122.022148,71.791351 121.823952,71.862244 121.315323,71.991135 
	C114.608162,65.525818 117.259888,55.121910 126.942963,50.175186 
	C126.946152,51.018826 126.818863,52.152859 126.185867,52.682529 
	C118.941994,58.744041 118.052338,62.459229 122.095490,71.368866 
z"/>
<path fill="#B5E860" opacity="1.000000" stroke="none" 
	d="
M152.217026,112.830833 
	C155.951569,110.814644 160.290405,109.108330 164.280441,106.799324 
	C166.432861,105.553726 167.988510,103.276886 170.108810,101.281036 
	C170.049149,102.753296 170.262299,105.195648 169.242599,105.932983 
	C164.310150,109.499573 159.837158,114.539085 152.217026,112.830833 
z"/>
<path fill="#293910" opacity="1.000000" stroke="none" 
	d="
M74.723824,165.876190 
	C78.622169,162.736908 82.268646,159.761032 86.276009,157.068359 
	C83.323982,162.573135 80.260635,168.055023 73.632103,169.817688 
	C73.674164,169.106796 73.716225,168.395889 73.743515,167.329163 
	C73.976486,166.662094 74.224220,166.350830 74.723824,165.876190 
z"/>
<path fill="#2B3E0F" opacity="1.000000" stroke="none" 
	d="
M145.292328,132.092194 
	C147.060272,135.335159 152.511810,137.077759 148.489197,141.988434 
	C148.029770,142.023987 147.792236,141.809937 147.843353,141.458679 
	C147.104355,139.559189 146.518906,137.853714 145.477676,136.498413 
	C143.783691,134.293442 141.791626,132.317459 140.279816,130.231873 
	C141.100037,130.149948 141.565796,130.081024 142.031570,130.012085 
	C143.027359,130.663666 144.023163,131.315247 145.292328,132.092194 
z"/>
<path fill="#B2E65A" opacity="1.000000" stroke="none" 
	d="
M93.321640,112.828979 
	C92.962555,112.478127 92.951683,111.988251 92.908554,111.132080 
	C92.826958,109.609512 92.777611,108.453232 92.377228,106.724960 
	C92.048477,104.822037 92.070763,103.491119 92.093048,102.160202 
	C93.242920,101.270859 94.392792,100.381516 95.735329,99.241333 
	C95.175278,103.556976 94.422569,108.123459 93.321640,112.828979 
z"/>
<path fill="#A2C65C" opacity="1.000000" stroke="none" 
	d="
M141.854370,129.725494 
	C141.565796,130.081024 141.100037,130.149948 140.117020,130.056000 
	C139.321533,129.686707 139.015228,129.628891 138.552460,129.406311 
	C137.654205,128.668762 136.884323,128.244598 136.092041,127.863434 
	C136.069626,127.906433 136.158371,127.867325 136.016785,127.560715 
	C134.327103,126.398834 132.779037,125.543564 131.204559,124.744354 
	C131.178177,124.800400 131.283386,124.734947 131.163910,124.456421 
	C130.199783,123.351707 129.355118,122.525513 128.631866,121.515366 
	C128.753250,121.331421 129.021561,120.981720 129.021561,120.981720 
	C133.240097,123.800789 137.458633,126.619850 141.854370,129.725494 
z"/>
<path fill="#ABDD66" opacity="1.000000" stroke="none" 
	d="
M118.863190,132.140366 
	C116.318085,131.738510 114.371635,132.144257 113.418709,135.055069 
	C113.060463,136.149368 111.607925,136.885406 110.325623,137.531738 
	C109.967094,136.799286 109.937225,136.319916 109.913948,135.455353 
	C111.450745,129.394501 114.532623,128.269043 119.224747,131.756485 
	C119.104332,131.884537 118.863190,132.140366 118.863190,132.140366 
z"/>
<path fill="#B5E860" opacity="1.000000" stroke="none" 
	d="
M137.129913,90.869087 
	C134.429657,87.856735 131.729416,84.844383 128.959351,81.488281 
	C128.889511,81.144539 128.944641,81.012230 129.360077,80.982071 
	C130.511337,80.962318 131.247131,80.972733 131.982941,80.983139 
	C134.653732,84.396172 137.324524,87.809212 139.877594,91.734970 
	C139.759857,92.247696 139.459045,92.557732 139.175415,92.460648 
	C138.297272,91.862488 137.702759,91.361420 137.097565,90.878532 
	C137.086884,90.896713 137.129913,90.869087 137.129913,90.869087 
z"/>
<path fill="#B6EA5D" opacity="1.000000" stroke="none" 
	d="
M132.121552,80.649429 
	C131.247131,80.972733 130.511337,80.962318 129.408295,80.929031 
	C129.352615,79.639984 129.664169,78.373810 130.159485,76.749252 
	C131.145599,76.373695 131.947998,76.356522 133.362885,76.529984 
	C134.681915,76.311356 135.388443,75.902092 136.094971,75.492813 
	C136.878540,75.158119 137.662109,74.823418 138.763168,74.434662 
	C139.873550,79.882820 134.284042,78.050507 132.121552,80.649429 
z"/>
<path fill="#ACDB63" opacity="1.000000" stroke="none" 
	d="
M135.903656,109.096451 
	C134.739639,108.386169 133.575623,107.675896 132.310577,106.903976 
	C131.254196,108.491638 130.485580,109.646790 129.306610,110.855591 
	C128.896240,110.909233 128.663071,110.699966 128.642410,110.288528 
	C128.817459,107.961082 129.013168,106.045074 129.623276,104.021347 
	C130.739532,103.435516 131.441406,102.957413 132.339600,102.847656 
	C133.282837,103.564842 134.029739,103.913689 134.793152,104.213516 
	C134.809647,104.164497 134.708160,104.144577 134.729919,104.457832 
	C135.153152,105.202271 135.554626,105.633453 135.971405,106.032516 
	C135.986740,106.000389 135.929520,106.042809 135.971268,106.363327 
	C136.160461,107.310455 136.307922,107.937065 136.317322,108.696732 
	C136.179260,108.829803 135.903656,109.096451 135.903656,109.096451 
z"/>
<path fill="#96C253" opacity="1.000000" stroke="none" 
	d="
M109.907356,135.840530 
	C109.937225,136.319916 109.967094,136.799286 109.997414,137.639099 
	C108.768028,140.880920 107.538193,143.762314 105.961990,146.702179 
	C105.797241,145.445755 105.978859,144.130875 106.210495,142.294830 
	C106.260521,141.773682 106.209007,141.494583 106.529694,141.313354 
	C107.869370,139.368256 108.888359,137.604401 109.907356,135.840530 
z"/>
<path fill="#B4E45E" opacity="1.000000" stroke="none" 
	d="
M19.588490,106.932831 
	C20.042713,103.583099 20.795149,100.087242 21.759190,96.294800 
	C23.213720,99.968681 23.837580,103.819557 19.588490,106.932831 
z"/>
<path fill="#97C24C" opacity="1.000000" stroke="none" 
	d="
M92.652946,79.073059 
	C95.511833,79.070061 98.017662,79.094528 100.989174,79.235809 
	C97.604553,79.930260 93.754265,80.507881 89.449188,81.037857 
	C90.096237,80.360321 91.198067,79.730423 92.652946,79.073059 
z"/>
<path fill="#BAF35B" opacity="1.000000" stroke="none" 
	d="
M117.957306,154.918900 
	C117.870834,155.357193 117.784363,155.795471 117.325760,156.672714 
	C116.622375,158.075989 116.291138,159.040314 115.959900,160.004639 
	C112.164658,156.321274 112.458511,154.610031 117.546127,153.301666 
	C117.937439,154.049759 117.947372,154.484329 117.957306,154.918900 
z"/>
<path fill="#B5E860" opacity="1.000000" stroke="none" 
	d="
M139.910233,92.092651 
	C143.935318,91.701195 144.138275,94.287735 144.061600,97.512688 
	C144.086914,97.916664 143.890411,98.114525 143.447083,98.173508 
	C141.822174,96.340912 140.640610,94.449326 139.459045,92.557732 
	C139.459045,92.557732 139.759857,92.247696 139.910233,92.092651 
z"/>
<path fill="#ACDB63" opacity="1.000000" stroke="none" 
	d="
M129.013046,111.013611 
	C129.085815,114.105484 129.041763,117.092972 129.009644,120.531097 
	C129.021561,120.981720 128.753250,121.331421 128.333008,121.495399 
	C127.615150,121.407425 127.317551,121.155479 127.014175,120.480370 
	C126.953018,118.924461 126.897621,117.791718 126.824448,116.280045 
	C127.425468,114.167404 128.044266,112.433685 128.663071,110.699966 
	C128.663071,110.699966 128.896240,110.909233 129.013046,111.013611 
z"/>
<path fill="#99CA54" opacity="1.000000" stroke="none" 
	d="
M119.185623,162.125824 
	C121.481018,161.864395 123.820908,161.947510 126.605042,162.069351 
	C124.573181,165.040924 122.007164,166.033066 119.185623,162.125824 
z"/>
<path fill="#ACDB63" opacity="1.000000" stroke="none" 
	d="
M139.614502,111.418938 
	C140.296951,112.433235 140.979416,113.447533 141.820587,114.733276 
	C138.041550,115.489967 137.185959,112.501915 135.998352,109.438873 
	C135.903656,109.096451 136.179260,108.829803 136.592804,108.844574 
	C137.866806,109.699188 138.727280,110.539024 139.589996,111.392578 
	C139.592224,111.406296 139.614502,111.418938 139.614502,111.418938 
z"/>
<path fill="#AAD35E" opacity="1.000000" stroke="none" 
	d="
M33.328415,68.886719 
	C34.436794,66.758293 35.878036,64.554672 37.593437,62.171387 
	C36.465488,64.264992 35.063385,66.538246 33.328415,68.886719 
z"/>
<path fill="#AADA5C" opacity="1.000000" stroke="none" 
	d="
M177.982971,45.421852 
	C178.334641,45.109035 178.708450,45.176380 179.355850,45.318150 
	C180.155869,45.933929 180.682281,46.475281 181.469025,47.141403 
	C181.826401,47.625210 181.923447,47.984245 182.079102,48.616058 
	C180.760162,47.859894 179.382629,46.830948 177.982971,45.421852 
z"/>
<path fill="#ACDB63" opacity="1.000000" stroke="none" 
	d="
M142.121994,115.337692 
	C143.386078,114.928757 144.772171,114.843399 146.577347,114.765533 
	C145.865448,117.493675 144.249985,117.622231 142.121994,115.337692 
z"/>
<path fill="#ABDD66" opacity="1.000000" stroke="none" 
	d="
M123.192848,133.878296 
	C122.699898,133.921463 122.206940,133.964630 121.342697,134.026886 
	C120.352676,133.590836 119.733940,133.135696 118.989197,132.410461 
	C118.863190,132.140366 119.104332,131.884537 119.583450,131.810364 
	C121.011803,131.909882 121.961037,132.083572 122.936310,132.530945 
	C123.039177,133.162521 123.116013,133.520416 123.192848,133.878296 
z"/>
<path fill="#99CA54" opacity="1.000000" stroke="none" 
	d="
M116.259628,160.036926 
	C116.291138,159.040314 116.622375,158.075989 117.255211,157.001114 
	C117.652756,157.683701 117.748711,158.476837 117.802994,159.668243 
	C117.360657,160.067398 116.960014,160.068298 116.259628,160.036926 
z"/>
<path fill="#9EC657" opacity="1.000000" stroke="none" 
	d="
M142.236359,70.801208 
	C142.543716,70.797134 142.663376,71.032135 142.889862,71.648254 
	C142.720490,72.482925 142.444305,72.936470 141.809875,73.684586 
	C141.451645,73.979141 140.973434,74.105873 140.973434,74.105873 
	C140.764709,74.083450 140.556000,74.061020 140.040207,73.966385 
	C140.504974,72.942886 141.276810,71.991592 142.236359,70.801208 
z"/>
<path fill="#AEDC62" opacity="1.000000" stroke="none" 
	d="
M44.251595,54.850948 
	C44.427654,54.309238 44.903214,53.698715 45.680206,53.020973 
	C45.504791,53.563213 45.027943,54.172672 44.251595,54.850948 
z"/>
<path fill="#9DC959" opacity="1.000000" stroke="none" 
	d="
M174.074463,197.720367 
	C173.576599,198.058853 173.167389,198.132645 172.446030,198.197357 
	C172.651443,197.576828 173.169022,196.965393 174.015396,196.357269 
	C174.283829,196.725586 174.223480,197.090637 174.074463,197.720367 
z"/>
<path fill="#B4E45E" opacity="1.000000" stroke="none" 
	d="
M23.312759,90.909904 
	C23.446047,90.373695 23.871504,89.751900 24.570957,89.026688 
	C24.431612,89.556946 24.018270,90.190636 23.312759,90.909904 
z"/>
<path fill="#97C24C" opacity="1.000000" stroke="none" 
	d="
M87.891380,81.110580 
	C87.643997,81.493790 87.074127,81.829514 86.261780,82.099533 
	C86.535828,81.710258 87.052361,81.386673 87.891380,81.110580 
z"/>
<path fill="#B5E860" opacity="1.000000" stroke="none" 
	d="
M149.991058,114.018799 
	C150.407288,113.637756 150.823502,113.256714 151.514069,112.803749 
	C151.380920,113.408775 150.973404,114.085724 150.268677,114.616943 
	C149.971481,114.471199 149.991058,114.018791 149.991058,114.018799 
z"/>
<path fill="#99CA54" opacity="1.000000" stroke="none" 
	d="
M118.268730,154.762726 
	C117.947372,154.484329 117.937439,154.049759 117.912872,153.288544 
	C117.898247,152.961914 117.976997,152.524689 118.005554,152.305359 
	C118.034103,152.086029 118.520935,152.032501 118.765121,152.013687 
	C118.866257,152.865433 118.723206,153.735992 118.268730,154.762726 
z"/>
<path fill="#ACDB63" opacity="1.000000" stroke="none" 
	d="
M149.633850,114.003387 
	C149.991058,114.018791 149.971481,114.471199 149.958496,114.696365 
	C149.376404,114.904411 148.807297,114.887283 147.810913,114.816986 
	C148.014633,114.505196 148.645645,114.246582 149.633850,114.003387 
z"/>
<path fill="#B6EA5D" opacity="1.000000" stroke="none" 
	d="
M141.101166,74.189972 
	C140.973434,74.105873 141.451645,73.979141 141.692551,73.923378 
	C141.803818,74.207718 141.568970,74.343201 141.101166,74.189972 
z"/>
<path fill="#1C1C1B" opacity="1.000000" stroke="none" 
	d="
M91.924301,101.791046 
	C92.070763,103.491119 92.048477,104.822037 92.072769,106.550514 
	C91.287575,107.763138 90.545433,108.711578 89.595100,109.350235 
	C88.861870,109.842972 87.493576,110.439209 87.069824,110.117439 
	C86.279938,109.517601 85.482140,108.251678 85.542381,107.318123 
	C85.948433,101.025139 85.966576,94.596756 87.449303,88.539993 
	C88.012909,86.237671 92.015640,83.396889 94.614868,83.220718 
	C104.069641,82.579918 113.605354,82.705887 123.083885,83.133598 
	C125.558502,83.245262 127.936539,85.497299 130.746887,87.222740 
	C133.375641,91.362411 135.616425,95.045654 137.988586,98.944839 
	C133.919098,101.009438 128.382126,98.276749 127.091080,104.519745 
	C126.399765,107.606583 125.726219,110.305855 124.688728,113.080597 
	C119.263962,116.811806 119.780479,121.615173 125.114944,125.086212 
	C126.795845,126.179947 127.477859,128.808823 128.617035,130.735107 
	C126.739777,130.500153 124.862518,130.265213 122.986397,130.019684 
	C122.987534,130.009125 122.972931,130.008408 122.895935,129.708771 
	C122.187614,128.955231 121.556305,128.501343 120.691483,128.047272 
	C120.457970,128.047104 119.991226,128.031250 119.874260,127.699425 
	C115.860176,124.336609 111.907669,122.990639 107.094109,125.757553 
	C105.920715,126.432045 103.703308,125.290283 101.965927,124.983620 
	C102.478882,123.158165 102.991844,121.332710 104.025490,119.161613 
	C105.013580,118.184143 105.480988,117.552307 105.948395,116.920479 
	C105.956482,115.228752 105.964561,113.537018 106.318962,111.317398 
	C110.508995,108.000504 110.001694,103.896317 109.948021,99.929253 
	C109.952744,98.281212 109.981010,96.632851 109.957863,94.985199 
	C109.882111,89.594757 105.101906,86.318405 99.902084,88.079330 
	C91.992279,90.758003 90.064499,93.915367 91.924301,101.791046 
z"/>
<path fill="#202613" opacity="1.000000" stroke="none" 
	d="
M127.108849,104.132187 
	C128.382126,98.276749 133.919098,101.009438 137.988586,98.944839 
	C135.616425,95.045654 133.375641,91.362411 131.079041,87.328354 
	C132.829132,88.260994 134.635025,89.544449 136.785431,90.848495 
	C137.129913,90.869087 137.086884,90.896713 137.080261,91.261993 
	C138.258453,95.870941 139.339569,100.188232 144.273590,101.770668 
	C144.273590,101.770668 144.142273,101.823410 144.257751,102.145279 
	C147.104630,104.800682 149.654770,105.314880 151.796310,101.727631 
	C151.796310,101.727631 151.802490,101.841759 152.181610,101.863388 
	C155.311859,100.506058 158.062973,99.127090 160.814072,97.748123 
	C160.814072,97.748123 160.829880,97.857674 161.258362,97.867813 
	C163.565628,97.815506 165.444412,97.753059 167.323196,97.690620 
	C167.323196,97.690620 167.338531,97.700813 167.346985,97.704147 
	C167.760300,101.845612 165.455688,104.153305 161.971695,105.649246 
	C156.948166,107.806213 152.009003,110.216515 146.845215,111.960121 
	C144.955719,112.598129 142.527679,111.641296 139.979919,111.415466 
	C139.614502,111.418938 139.592224,111.406296 139.660614,111.014038 
	C138.462509,109.095451 137.196014,107.569130 135.929520,106.042809 
	C135.929520,106.042809 135.986740,106.000389 135.931091,105.731430 
	C135.486343,105.023178 135.097244,104.583878 134.708160,104.144577 
	C134.708160,104.144577 134.809647,104.164497 134.800049,103.936356 
	C133.908066,103.298576 133.025665,102.888939 132.143265,102.479309 
	C131.441406,102.957413 130.739532,103.435516 129.272827,104.008591 
	C128.041611,104.113098 127.575226,104.122643 127.108849,104.132187 
z"/>
<path fill="#1D2117" opacity="1.000000" stroke="none" 
	d="
M101.749557,125.279419 
	C103.703308,125.290283 105.920715,126.432045 107.094109,125.757553 
	C111.907669,122.990639 115.860176,124.336609 119.485916,127.695740 
	C114.300316,127.253883 109.445732,126.850815 107.680740,133.040863 
	C106.900787,135.776245 106.682358,138.671768 106.209007,141.494583 
	C106.209007,141.494583 106.260521,141.773682 106.188766,141.896103 
	C105.106369,143.575638 103.679810,145.006317 103.160988,146.712936 
	C101.419022,152.443024 98.420891,157.014099 93.387123,160.499802 
	C90.927193,162.203217 89.273155,165.070435 86.915634,167.954315 
	C84.422256,171.380585 82.267593,174.263428 80.112923,177.146271 
	C80.112923,177.146271 80.048813,177.045532 79.681747,177.095642 
	C76.795227,177.469925 74.275780,177.794083 71.756332,178.118240 
	C72.139328,175.389954 72.522316,172.661682 73.268707,169.875549 
	C80.260635,168.055023 83.323982,162.573135 86.603119,156.992813 
	C86.569336,156.634048 86.589973,156.625854 86.968697,156.668716 
	C88.489792,155.380859 89.632164,154.050156 90.774536,152.719437 
	C90.774536,152.719437 90.808594,152.717911 90.793770,152.715332 
	C92.129463,151.473038 94.214760,150.471481 94.706863,148.953476 
	C97.209229,141.234283 99.298958,133.381332 101.749557,125.279419 
z"/>
<path fill="#1D2117" opacity="1.000000" stroke="none" 
	d="
M109.621872,100.067169 
	C110.001694,103.896317 110.508995,108.000504 106.325600,110.894432 
	C107.089188,107.401276 108.192451,103.803185 109.621872,100.067169 
z"/>
<path fill="#1D2117" opacity="1.000000" stroke="none" 
	d="
M105.657776,117.015610 
	C105.480988,117.552307 105.013580,118.184143 104.237503,118.882011 
	C104.408272,118.335617 104.887718,117.723183 105.657776,117.015610 
z"/>
<path fill="#1B1E1A" opacity="1.000000" stroke="none" 
	d="
M140.985291,61.872456 
	C141.729156,66.717087 139.428116,70.845650 135.754486,71.965744 
	C128.882874,74.060898 126.657684,73.350227 123.678238,68.108772 
	C121.259911,63.854420 122.164215,59.795746 125.490860,56.418056 
	C130.970245,50.854576 139.470322,52.864326 140.985291,61.872456 
z"/>
<path fill="#9EC657" opacity="1.000000" stroke="none" 
	d="
M135.781311,75.435791 
	C135.388443,75.902092 134.681915,76.311356 133.652267,76.630371 
	C134.041977,76.153008 134.754822,75.765884 135.781311,75.435791 
z"/>
<path fill="#A2CC59" opacity="1.000000" stroke="none" 
	d="
M123.054962,72.708145 
	C122.803192,72.741714 122.582375,72.486702 122.291916,71.986069 
	C122.510155,71.966820 122.798035,72.193199 123.054962,72.708145 
z"/>
<path fill="#344A12" opacity="1.000000" stroke="none" 
	d="
M80.443222,177.080627 
	C82.267593,174.263428 84.422256,171.380585 86.835075,168.281677 
	C87.547958,168.061691 88.002678,168.057755 88.799179,168.061035 
	C86.351807,171.050491 83.562660,174.032730 80.443222,177.080627 
z"/>
<path fill="#344A12" opacity="1.000000" stroke="none" 
	d="
M71.919327,178.455887 
	C74.275780,177.794083 76.795227,177.469925 79.730621,177.129944 
	C78.002556,180.286423 75.313797,180.842957 71.919327,178.455887 
z"/>
<path fill="#2A3C0C" opacity="1.000000" stroke="none" 
	d="
M133.556122,155.035278 
	C132.753906,155.082916 132.286728,155.061310 131.547729,154.705933 
	C134.542419,151.906693 137.808914,149.441238 141.406113,147.028076 
	C141.956909,147.117447 142.177002,147.154526 142.397110,147.191620 
	C139.561783,149.783081 136.726456,152.374557 133.556122,155.035278 
z"/>
<path fill="#2B3E0F" opacity="1.000000" stroke="none" 
	d="
M142.733688,147.190186 
	C142.177002,147.154526 141.956909,147.117447 141.473969,146.698730 
	C143.404831,144.814713 145.598526,143.312332 147.792236,141.809937 
	C147.792236,141.809937 148.029770,142.023987 148.148804,142.130722 
	C146.535309,143.887878 144.802795,145.538315 142.733688,147.190186 
z"/>
<path fill="#293910" opacity="1.000000" stroke="none" 
	d="
M90.434769,152.741241 
	C89.632164,154.050156 88.489792,155.380859 86.979584,156.666031 
	C87.772827,155.334671 88.933914,154.048859 90.434769,152.741241 
z"/>
<path fill="#1D2117" opacity="1.000000" stroke="none" 
	d="
M147.843353,141.458679 
	C145.598526,143.312332 143.404831,144.814713 141.143265,146.646454 
	C137.808914,149.441238 134.542419,151.906693 131.197052,154.695404 
	C129.961777,155.955276 128.939133,157.284790 127.617134,157.734650 
	C125.722137,158.379517 123.608673,158.382385 121.588478,158.659348 
	C122.229050,156.343796 122.328537,153.632828 123.654640,151.818253 
	C125.131332,149.797623 127.811249,148.693405 129.789200,146.984070 
	C130.597931,146.285172 130.939163,145.045319 131.495041,143.682983 
	C131.497009,143.314377 131.369965,143.054306 131.679230,142.896484 
	C132.814255,141.999496 133.639999,141.260361 135.338333,139.740143 
	C132.176910,138.273712 129.626160,137.090561 127.075409,135.907394 
	C126.008514,135.232986 124.941620,134.558578 123.533783,133.881226 
	C123.116013,133.520416 123.039177,133.162521 122.948288,132.159393 
	C122.951241,131.019501 122.968246,130.524887 122.985260,130.030258 
	C124.862518,130.265213 126.739777,130.500153 128.617035,130.735107 
	C127.477859,128.808823 126.795845,126.179947 125.114944,125.086212 
	C119.780479,121.615173 119.263962,116.811806 124.689850,113.502548 
	C125.088882,114.971939 125.122849,116.094864 125.178238,117.525818 
	C125.129784,118.236397 125.059906,118.638939 124.744904,119.111603 
	C124.272713,119.491608 124.045647,119.801498 123.818573,120.111374 
	C124.291565,120.340813 124.764557,120.570251 125.236954,120.822525 
	C125.236374,120.845360 125.240166,120.801346 125.274750,121.144836 
	C127.300682,122.570534 129.292038,123.652740 131.283386,124.734947 
	C131.283386,124.734947 131.178177,124.800400 131.238892,125.106407 
	C132.919189,126.230721 134.538788,127.049026 136.158371,127.867325 
	C136.158371,127.867325 136.069626,127.906433 136.169891,128.216919 
	C137.073715,128.924835 137.877274,129.322266 138.680832,129.719681 
	C139.015228,129.628891 139.321533,129.686707 139.762573,130.068985 
	C141.791626,132.317459 143.783691,134.293442 145.477676,136.498413 
	C146.518906,137.853714 147.104355,139.559189 147.843353,141.458679 
z"/>
<path fill="#2B3D0E" opacity="1.000000" stroke="none" 
	d="
M144.275482,101.416504 
	C139.339569,100.188232 138.258453,95.870941 137.090942,91.243805 
	C137.702759,91.361420 138.297272,91.862488 139.175415,92.460648 
	C140.640610,94.449326 141.822174,96.340912 143.349243,98.272842 
	C143.888947,99.229576 144.083176,100.145958 144.275482,101.416504 
z"/>
<path fill="#2C3F0E" opacity="1.000000" stroke="none" 
	d="
M160.425751,97.745087 
	C158.062973,99.127090 155.311859,100.506058 152.146118,101.818596 
	C154.500122,100.415466 157.268768,99.078758 160.425751,97.745087 
z"/>
<path fill="#2C3F0E" opacity="1.000000" stroke="none" 
	d="
M151.367966,101.717941 
	C149.654770,105.314880 147.104630,104.800682 144.305740,102.093285 
	C146.472046,101.715691 148.705826,101.711967 151.367966,101.717941 
z"/>
<path fill="#304412" opacity="1.000000" stroke="none" 
	d="
M167.227722,97.326889 
	C165.444412,97.753059 163.565628,97.815506 161.219452,97.828445 
	C162.878799,97.507027 165.005524,97.235092 167.227722,97.326889 
z"/>
<path fill="#9BC261" opacity="1.000000" stroke="none" 
	d="
M127.173508,136.222565 
	C129.626160,137.090561 132.176910,138.273712 135.338333,139.740143 
	C133.639999,141.260361 132.814255,141.999496 131.646622,142.755478 
	C129.960358,140.694122 128.615982,138.615921 127.173508,136.222565 
z"/>
<path fill="#2B3E0F" opacity="1.000000" stroke="none" 
	d="
M131.163910,124.456421 
	C129.292038,123.652740 127.300682,122.570534 125.572060,121.143280 
	C126.229843,120.833321 126.624893,120.868423 127.019951,120.903526 
	C127.317551,121.155479 127.615150,121.407425 128.211609,121.679352 
	C129.355118,122.525513 130.199783,123.351707 131.163910,124.456421 
z"/>
<path fill="#2B3E0F" opacity="1.000000" stroke="none" 
	d="
M136.016785,127.560715 
	C134.538788,127.049026 132.919189,126.230721 131.265289,125.050354 
	C132.779037,125.543564 134.327103,126.398834 136.016785,127.560715 
z"/>
<path fill="#2B3E0F" opacity="1.000000" stroke="none" 
	d="
M138.552460,129.406311 
	C137.877274,129.322266 137.073715,128.924835 136.192291,128.173920 
	C136.884323,128.244598 137.654205,128.668762 138.552460,129.406311 
z"/>
<path fill="#273C0D" opacity="1.000000" stroke="none" 
	d="
M122.986389,130.019684 
	C122.968246,130.524887 122.951241,131.019501 122.922256,131.885696 
	C121.961037,132.083572 121.011803,131.909882 119.703873,131.682312 
	C114.532623,128.269043 111.450745,129.394501 109.913948,135.455353 
	C108.888359,137.604401 107.869370,139.368256 106.529694,141.313354 
	C106.682358,138.671768 106.900787,135.776245 107.680740,133.040863 
	C109.445732,126.850815 114.300316,127.253883 119.602882,128.027557 
	C119.991226,128.031250 120.457970,128.047104 120.787231,128.336624 
	C121.735306,129.086899 122.354118,129.547653 122.972931,130.008408 
	C122.972931,130.008408 122.987534,130.009125 122.986389,130.019684 
z"/>
<path fill="#304412" opacity="1.000000" stroke="none" 
	d="
M125.156815,117.217773 
	C125.122849,116.094864 125.088882,114.971939 125.053802,113.427071 
	C125.726219,110.305855 126.399765,107.606583 127.091080,104.519745 
	C127.575226,104.122643 128.041611,104.113098 128.858429,104.116318 
	C129.013168,106.045074 128.817459,107.961082 128.642410,110.288528 
	C128.044266,112.433685 127.425468,114.167404 126.552368,116.398895 
	C125.917648,117.003708 125.537231,117.110741 125.156815,117.217773 
z"/>
<path fill="#304412" opacity="1.000000" stroke="none" 
	d="
M135.971268,106.363327 
	C137.196014,107.569130 138.462509,109.095451 139.658386,111.000320 
	C138.727280,110.539024 137.866806,109.699188 136.730865,108.711502 
	C136.307922,107.937065 136.160461,107.310455 135.971268,106.363327 
z"/>
<path fill="#304412" opacity="1.000000" stroke="none" 
	d="
M132.339600,102.847649 
	C133.025665,102.888939 133.908066,103.298576 134.783569,103.985367 
	C134.029739,103.913689 133.282837,103.564842 132.339600,102.847649 
z"/>
<path fill="#304412" opacity="1.000000" stroke="none" 
	d="
M134.729919,104.457832 
	C135.097244,104.583878 135.486343,105.023178 135.915756,105.763557 
	C135.554626,105.633453 135.153152,105.202271 134.729919,104.457832 
z"/>
<path fill="#A2C65C" opacity="1.000000" stroke="none" 
	d="
M125.178238,117.525818 
	C125.537231,117.110741 125.917648,117.003708 126.570145,116.777817 
	C126.897621,117.791718 126.953018,118.924461 127.014175,120.480370 
	C126.624893,120.868423 126.229843,120.833321 125.537476,120.799782 
	C125.240166,120.801346 125.236374,120.845360 125.223816,120.525894 
	C125.137520,119.818115 125.063774,119.429794 124.990036,119.041481 
	C125.059906,118.638939 125.129784,118.236397 125.178238,117.525818 
z"/>
<path fill="#1D2117" opacity="1.000000" stroke="none" 
	d="
M122.895935,129.708771 
	C122.354118,129.547653 121.735306,129.086899 121.020744,128.336792 
	C121.556305,128.501343 122.187614,128.955231 122.895935,129.708771 
z"/>
<path fill="#2B3E0F" opacity="1.000000" stroke="none" 
	d="
M124.744904,119.111603 
	C125.063774,119.429794 125.137520,119.818115 125.224403,120.503052 
	C124.764557,120.570251 124.291565,120.340813 123.818573,120.111374 
	C124.045647,119.801498 124.272713,119.491608 124.744904,119.111603 
z"/>
</svg>